<svg xmlns="http://www.w3.org/2000/svg" width="430" height="25">
  <g id="layer1" transform="translate(313.373 -194.232)">
    <path id="path3383" d="M-121,194.5a1.622,1.622,0,0,1,.428,0c.178.019.125.032-.135.035C-120.944,194.533-121.076,194.519-121,194.5Zm-181.064,5.68a3.241,3.241,0,0,1,.558,0c.154.016.028.029-.279.029S-302.219,200.2-302.066,200.18Zm-.838-.02c0-.032.044-.058.1-.058a.765.765,0,0,1,.237.058c.076.032.032.058-.1.058S-302.9,200.192-302.9,200.161Zm2.174.078a4.823,4.823,0,0,1,.67,0c.217.015.094.028-.275.029s-.546-.011-.4-.027Zm3.025.061a1.621,1.621,0,0,1,.428,0c.178.018.125.032-.135.035C-297.647,200.332-297.779,200.319-297.705,200.3Zm404.726,16.332c0-.032.1-.058.223-.058s.223.026.223.058-.1.058-.223.058S107.021,216.664,107.021,216.632Zm-1.117.056c0-.083.338-.11.681-.053.178.029.274.056.213.059l-.5.025A.806.806,0,0,1,105.9,216.688Zm-1.564.352c0-.031.151-.041.335-.023a1.311,1.311,0,0,1,.335.056,1.258,1.258,0,0,1-.335.023C104.491,217.1,104.34,217.071,104.34,217.04Zm.782.4c-.364-.041-.377-.051-.069-.054a1.831,1.831,0,0,1,.516.054c.159.067.151.067-.447,0Zm-1.81-.01c-.063-.027.035-.048.22-.048a1.676,1.676,0,0,1,.45.048c.063.027-.035.048-.22.048A1.679,1.679,0,0,1,103.312,217.434Zm-374.742.912c-.047-.012-2.9-.039-6.341-.06s-6.707-.048-7.26-.061-2.362-.038-4.021-.058-3.215-.051-3.459-.069c-.906-.069.392-.123,1.678-.07.672.028,3.484.066,6.249.086,6.288.044,7.019.055,7.321.1a.855.855,0,0,0,.367-.013c.112-.047,1.751-.042,4.04.013.491.012,1.689.025,2.662.029s1.727.017,1.675.029c-.138.031-2.81.1-2.911.07Zm15.551.025c-.076-.032.019-.058.21-.058s.348.026.348.058-.095.058-.21.058A1.1,1.1,0,0,1-255.88,218.372Zm-4.354,0c-.836-.058-.262-.106,1-.084.614.011,1.5.022,1.978.024a3.231,3.231,0,0,1,.742.035C-256.7,218.4-259.613,218.42-260.233,218.376Zm-3.639.018c-.027-.007-.831-.024-1.787-.039s-1.8-.043-1.881-.063,1.055-.022,2.52,0,2.693.042,2.73.052a5.984,5.984,0,0,1-.733.041c-.44.013-.822.019-.849.012Zm11.679.033c-1.659-.017-2.714-.041-2.346-.052,1.327-.041,7.289-.034,7.551.009.193.032.175.046-.067.052-.931.022-2.4.02-5.138-.009Zm8.377.062c-1.474-.017-2.56-.051-2.413-.076a10.106,10.106,0,0,1,1.117-.039c.467,0,2.038,0,3.491,0s2.7.005,2.774.024c.444.115-.883.14-4.969.094Zm-47.694-17.4c0-.034-.1-.045-.223-.026a.568.568,0,0,0-.223.061.513.513,0,0,0,.223.026C-291.611,201.146-291.511,201.119-291.511,201.085Zm394.167.112a9.464,9.464,0,0,0-1.891-.083c-.981.031-1.023.047-.223.084a14.7,14.7,0,0,0,2.114,0Zm-408.362,1.346c.071-.03-.082-.071-.339-.092-.53-.044-.771-.007-.554.084A1.811,1.811,0,0,0-305.706,202.543Zm6.25,1.266a4.4,4.4,0,0,0-.836-.05l-.713,0,.547.079c.565.081,1.221.061,1-.031Zm3.7,9.634a1.685,1.685,0,0,0-.614-.057c-.479,0-.54.013-.279.057C-296.211,213.515-295.755,213.515-295.755,213.442Zm-1.9.817c.38-.022-.633-.113-1.312-.117-.514,0-.592.011-.391.074A7.37,7.37,0,0,0-297.654,214.259Zm394.3,2.32a1.982,1.982,0,0,0-.572-.022c-.615.042-.559.075.125.075C96.514,216.632,96.715,216.608,96.646,216.579ZM95,216.592a1.624,1.624,0,0,0-.428,0c-.074.019.057.033.293.03C95.125,216.625,95.177,216.611,95,216.592Zm-.811-.013a1.983,1.983,0,0,0-.572-.022c-.615.042-.559.075.125.075C94.056,216.632,94.257,216.608,94.189,216.579Zm1.048.362a3.241,3.241,0,0,0-.558,0c-.154.016-.028.029.279.029S95.39,216.958,95.237,216.941Zm-157.659,1.72a1.586,1.586,0,0,0-.46-.058c-.177,0-.322.026-.322.058a.968.968,0,0,0,.46.058C-62.491,218.72-62.346,218.694-62.422,218.662Zm-48.811.221c38.567.086,45.8.062,47.3-.155.318-.046.242-.063-.438-.1-.793-.039-12.742,0-18.04.061-2.929.033-19.657.036-25.355.005-9.549-.052-11.141-.046-11.992.047-1.2.131-1.369.237-.271.172C-119.555,218.888-115.6,218.873-111.233,218.883Zm35.292.339c-.059-.015-8.653-.045-19.1-.066-18.115-.036-21.031-.047-33.174-.119l-10.053-.056c-2.642-.014-6.914-.041-9.494-.06-5.208-.039-5.181-.038-5.808-.033-.732.007-31.469-.049-31.833-.057-.184,0-1.039,0-1.9,0s-2.971,0-4.691-.02-6.194-.045-9.941-.063c-6.535-.03-9.812-.049-21.892-.126-7.844-.05-13.026-.081-13.341-.08-.152,0-.215-.038-.142-.087.1-.067.372-.081,1.166-.058,1.058.03,9.576.043,10.958.016.861-.017,1.143-.125.535-.205-.222-.029-2.566-.06-5.207-.069s-5.456-.023-6.255-.033-4.267-.033-7.707-.051-7.009-.046-7.93-.062-4.038-.044-6.925-.063-5.551-.045-5.92-.058-2.027-.036-3.686-.05c-4.163-.035-8.163-.085-9.494-.119-1.5-.039-5.865-.107-6.7-.1-.369,0-1.424-.02-2.346-.047s-2.781-.064-4.133-.082-2.709-.044-3.016-.057-1.3-.038-2.2-.056a21.126,21.126,0,0,1-2.633-.177,14.43,14.43,0,0,0-1.646-.144c-.506,0-.624-.021-.519-.092a.347.347,0,0,1,.272-.044c.075.027.941.049,1.924.049s3.069.02,4.635.043c1.808.027,2.848.022,2.848-.014a9.025,9.025,0,0,0-2.058-.259c-.21.009-.864-.019-1.452-.061l-1.069-.076.782-.013c.7-.012.669-.018-.335-.058-.614-.025-1.7-.047-2.42-.05-.936,0-1.277-.026-1.211-.078a1.952,1.952,0,0,1,.633-.09c.3-.01.692-.033.876-.053a4.151,4.151,0,0,1,.526-.024,2.353,2.353,0,0,0,.5-.055,20.129,20.129,0,0,1,3,.038c1.234.062,7.6.084,7.6.025a3.048,3.048,0,0,0-.838-.067c-1.012-.009-1.465-.018-3.63-.07-.921-.022-2.379-.053-3.239-.068-2.4-.043-5.556-.159-5.838-.214a9.82,9.82,0,0,0-1.117-.056c-1.11-.008-1.646-.081-1.646-.224,0-.076.152-.114.461-.114.685,0,1.326-.107,1.19-.2-.065-.044.014-.079.176-.077s.7,0,1.188-.009c.838-.011.783-.021-.894-.148-.983-.075-2.116-.154-2.519-.176-.512-.028-.713-.069-.67-.137s-.066-.09-.228-.081c-.214.011-.232-.012-.068-.092a4.463,4.463,0,0,1,2.075-.235c.907.012,1.2,0,1.248-.07a5.713,5.713,0,0,0-1.977-.233c-.475-.005-.452-.013.183-.066.783-.065.853-.105.491-.281-.21-.1-.177-.11.311-.078a2.449,2.449,0,0,0,.7-.027,16.018,16.018,0,0,1,1.867-.07c1.552-.007,1.621-.011.713-.051-.553-.024-1.784-.034-2.737-.024a12.2,12.2,0,0,1-1.731-.037,1.381,1.381,0,0,0-.545-.056,2.92,2.92,0,0,1-.683-.058c-.076-.032.044-.059.266-.059.726,0,4.632-.041,5.319-.053.67-.011.67-.011.12-.068-.3-.031-.906-.066-1.34-.077a11.4,11.4,0,0,1-2.851-.21,1.166,1.166,0,0,0-.529-.131c-.474-.032-.584-.153-.147-.162.154,0,1.335,0,2.625,0a32.268,32.268,0,0,0,5.008-.125c-.431-.063-.73-.075-3.779-.157a19.038,19.038,0,0,1-3.351-.173c.246-.007.547-.01.67-.006s-.125-.071-.55-.167a7.146,7.146,0,0,0-1.1-.174c-.179,0-.259-.017-.178-.038s.035-.073-.1-.116-.181-.078-.1-.078,0-.058-.2-.129c-.52-.193-.43-.277.294-.277a10.613,10.613,0,0,0,2.038-.123c0-.028-.145-.051-.322-.051-.614,0-.6-.117.029-.178.606-.06.612-.065.194-.145a4.778,4.778,0,0,0-.7-.083.632.632,0,0,1-.375-.108,4.6,4.6,0,0,0-1.422-.208c-.722-.055-1.488-.123-1.7-.153a9.44,9.44,0,0,0-1.005-.054,7.7,7.7,0,0,1-.946-.055c-.283-.046-.276-.059.046-.091.549-.055.271-.345-.643-.673a2.614,2.614,0,0,1-.75-.343c0-.041-.161-.121-.357-.177-.413-.118-.21-.25.306-.2a1.373,1.373,0,0,0,.507-.031,5.376,5.376,0,0,1,1.395.006c1.258.073,2.088.046,1.836-.06a2.6,2.6,0,0,0-.628-.062c-.455,0-.459-.007-.058-.048.542-.055.342-.083-1.3-.182a8.161,8.161,0,0,1-2.79-.5l-.256-.129,1.847.037c1.705.034,1.824.029,1.541-.06-.26-.082-.26-.1,0-.1.169,0,.407-.013.53-.02s.4-.017.614-.022c.878-.02.1-.172-1.4-.272-.061,0-.313-.027-.558-.052s-.572-.054-.726-.066-.279-.072-.279-.133c0-.106.054-.108,1.173-.028.645.046,1.324.1,1.508.128a4.449,4.449,0,0,0,1.452-.081.991.991,0,0,0-.447-.076,2.384,2.384,0,0,1-.6-.092,7.118,7.118,0,0,0-1.117-.146c-2-.157-2.107-.175-.849-.142.676.017,1.631.055,2.122.084s1.547.053,2.346.055c.986,0,1.346.02,1.123.056-.29.048-.29.057,0,.079.546.041,2.99.154,4.038.187.54.017,1.636.055,2.434.085,2.078.078,4.6.133,4.468.1-.116-.031-3.18-.207-4.356-.25-.369-.013-.972-.039-1.34-.057s-1.362-.054-2.207-.08a16.763,16.763,0,0,1-1.675-.1c-.076-.029-.893-.087-1.814-.129s-1.817-.1-1.989-.141a1.222,1.222,0,0,0-.335-.044,15.471,15.471,0,0,1-2.044-.114,1.992,1.992,0,0,0-.519-.053,4.248,4.248,0,0,1-1.026-.206,3.144,3.144,0,0,0-.927-.176,1.158,1.158,0,0,1-.411-.02c-.182-.077.988-.249,1.405-.207s5.987.184,7.257.184.549-.081-2.439-.274c-2.179-.141-3.52-.2-4.724-.224-.375-.006-.356-.206.029-.289a2.876,2.876,0,0,1,.849-.013,27.449,27.449,0,0,0,3.535.072,2.111,2.111,0,0,0-.726-.074c-.4,0-.827-.015-.949-.022s-.5-.017-.838-.02a1.356,1.356,0,0,1-.614-.08,17.572,17.572,0,0,0-2.855-.216c-.287,0-.5-.036-.5-.085s-.2-.113-.447-.147a1.327,1.327,0,0,0-.447-.024.756.756,0,0,1-.335-.034c-.715-.154-.339-.186,1.689-.145a8.19,8.19,0,0,0,2.308-.059,14.023,14.023,0,0,1,3.264-.127c2.907.113,3.465.118,3.179.029a3.094,3.094,0,0,0-.774-.072,4.74,4.74,0,0,1-.729-.032c-.123-.024-.827-.061-1.564-.082a12.884,12.884,0,0,1-3.463-.323c0-.072-.272-.13-.838-.178a6.392,6.392,0,0,1-1.117-.174,4.514,4.514,0,0,0-.949-.141c-.418-.024-.67-.075-.67-.135,0-.085.216-.093,1.707-.067a15.78,15.78,0,0,0,2.066-.039c.2-.038.309-.079.248-.092-.163-.034-3.493-.207-4.858-.252-1.741-.057-1.421-.149.47-.135.9.007,1.758-.006,1.9-.029.471-.076.291-.367-.3-.488a4.18,4.18,0,0,1-.559-.135c0-.011,1.209,0,2.686.031s2.756.034,2.842.011c.272-.071-.468-.148-1.423-.149a8.87,8.87,0,0,1-2.318-.146,2.028,2.028,0,0,0-.726-.165c-.7-.089-.7-.093-.168-.1.307,0,.659-.014.782-.021s.424-.018.67-.023c.373-.008.392-.019.112-.066s-.25-.056.137-.057c.26,0,.963.023,1.564.053,1.705.084,4.719.083,5.34,0,.121-.016,2.151-.037,4.511-.045s4.765-.033,5.343-.054c1.252-.046,1.613-.183.493-.186-1.562,0-4.127-.06-4.877-.1-.459-.027,1.89-.048,5.7-.05,9.415,0,12.4-.022,12.4-.071,0-.024-.126-.045-.279-.047s-.933-.02-1.731-.039-2.763-.046-4.366-.059a37.5,37.5,0,0,1-4.7-.156,3.039,3.039,0,0,0-.668-.051c-.376,0-.545-.032-.545-.1s-.12-.136-.266-.174c-.206-.054-.069-.066.609-.055.626.01.877-.009.881-.067s.169-.088.369-.1c1.667-.064,1.768-.247.115-.209-.269.006-.374-.019-.3-.07.113-.077-.562-.153-2.079-.236a10.151,10.151,0,0,1-1.34-.206,8.851,8.851,0,0,0-1.005-.181,8.135,8.135,0,0,1,1.679-.1,15.231,15.231,0,0,0,1.639-.125,8.913,8.913,0,0,1,1.83-.081,5.551,5.551,0,0,0,1.575-.084,6.047,6.047,0,0,1,.9-.122c.168,0,.3-.036.3-.08,0-.078-.178-.088-3.394-.185-1.074-.032-1.283-.058-1.34-.162s-.25-.129-.777-.142a3.363,3.363,0,0,1-1.079-.164c-.344-.136-.344-.154,0-.253.214-.061.34-.175.3-.269-.069-.152,0-.167,1.043-.23,1.527-.092,1.9-.138,1.9-.232,0-.044.2-.081.447-.081a1.122,1.122,0,0,0,.447-.046c0-.092-.548-.186-1.106-.188-.609,0-2.993-.161-2.524-.168.154,0,.279-.066.279-.143,0-.141.513-.239,1.1-.213.27.012.275,0,.029-.078-.162-.051-.194-.092-.07-.092a.558.558,0,0,0,.342-.116c.064-.064.033-.1-.07-.086a.715.715,0,0,1-.327-.029,7.1,7.1,0,0,1,1.6-.063c4.5-.009,5.643-.028,5.911-.1.223-.058.013-.073-1.05-.074-1.2,0-1.288-.01-.907-.085a2.362,2.362,0,0,1,.817-.028c.52.072,6.411.025,6.78-.054.227-.049,9.785-.2,10.378-.167.55.033,10.564-.095,10.663-.136a.631.631,0,0,1,.29-.026c.283.045,3.095.046,7.4,0,2.273-.024,6.6-.041,9.606-.039s8.137,0,11.393,0c6.22,0,9.054.013,10.723.046.553.011,12.415.032,26.36.046,24.017.024,34.777.055,41.886.12,1.72.016,6.043.043,9.606.06s8.285.042,10.492.055c2.519.015,3.892,0,3.686-.03s.2-.051,1.236-.046c1.55.008,1.554.009.447.048-.954.034-.814.041.963.049a7.452,7.452,0,0,0,1.923-.057c-.114-.048.234-.055,1.271-.027,1.912.052,9.465.06,9.774.01.262-.042,21.936-.05,22.1-.008a4.311,4.311,0,0,0,.676-.033c.826-.082,27.916-.054,30.464.03,1.684.056,7.036.093,12.695.087,3.01,0,6.1,0,6.869,0,1.143.008,1.4-.007,1.4-.083s.371-.089,3.183-.061c1.751.017,3.284.034,3.407.037s1.631,0,3.351,0,3.831.008,4.691.019,9.239.036,18.619.055c12.025.025,17.141.017,17.345-.027.312-.067,17.988-.1,20.666-.042.8.018,2.542.06,3.874.094s2.488.057,2.569.052.9.011,1.822.034c1.629.041,5.809.087,11.728.128,6.016.042,9.835.094,10.009.137a7.72,7.72,0,0,0,1.1,0c.507-.024,1.582-.031,2.389-.015s1.569.027,1.692.025l3.127-.035,5.25-.06c1.29-.015,3.638-.041,5.217-.057s2.953-.043,3.053-.059a.412.412,0,0,1,.268.039,7.493,7.493,0,0,0,1.471.064,9.192,9.192,0,0,1,1.384.049,3.388,3.388,0,0,0,.838.025c2.429-.079,4.747-.1,4.747-.037a1.765,1.765,0,0,1-.657.064,3.553,3.553,0,0,0-.818.068q-.162.068.2.031a2.435,2.435,0,0,1,.72.056,5.507,5.507,0,0,0,1.458.058c1.093-.034,1.517.035.657.106-.246.02-.447.077-.447.125s-.2.1-.447.119a1,1,0,0,0-.447.085c0,.03.092.04.2.022a4,4,0,0,1,.726.022c.405.042.433.055.121.058-.794.007-3.507.188-3.507.233a4.38,4.38,0,0,0,.9.05c1.079,0,1.576.118,1.72.394.154.3-.3.534-1.222.634-.654.071-.734.1-.5.171a4.108,4.108,0,0,0,.908.087,3.54,3.54,0,0,1,.768.058c.076.032-.077.058-.338.058-.333,0-.454.031-.4.1s.336.106,1.148.119c1.461.024,1.254.147-.313.186-2.565.063-2.263.243.379.227,2.338-.015,2.638.034.54.088-.864.022-2.1.089-2.744.148l-1.173.107,1.269-.018c.971-.014,1.243,0,1.158.057-.062.042,0,.093.127.114.4.063.27.138-.264.158-.413.015-.49.049-.431.193a.406.406,0,0,0,.32.2,5.583,5.583,0,0,1,.736.159,4.7,4.7,0,0,0,1.132.137c.355,0,.872.017,1.15.036.467.033.442.043-.335.142-.462.059-1.133.135-1.491.169-.495.048-.588.079-.391.13.392.1.313.2-.187.235-.848.058-.461.157.614.158.767,0,.968.016.726.057a9.008,9.008,0,0,1-1.08.057c-1.061,0-.79.141.315.163,3.179.062,6.877.184,6.993.232a19.771,19.771,0,0,0,2.372.164c.123.005.877.014,1.675.02.884.007,1.289.027,1.035.053-.229.023-1.519.033-2.867.022-2.4-.021-2.448-.019-2.3.1.13.106.079.117-.4.086-.626-.041-1.018.058-.454.114.2.02,1.237.038,2.3.039s2.078.028,2.256.059c.234.041.074.054-.57.048-1.266-.011-1.548,0-1.373.043a28.291,28.291,0,0,0,3.434.076c1.257,0,2.386-.008,2.511-.028s.171,0,.093.054a2.166,2.166,0,0,1-.766.09,3.547,3.547,0,0,0-.773.059,4.281,4.281,0,0,1-.9.037c-.418-.012-.705,0-.639.029s-.162.05-.509.048a21.745,21.745,0,0,0-3.2.145,40.543,40.543,0,0,0,5.44.114,10.815,10.815,0,0,1,2.709.069c.206.073.225.15.07.279a.916.916,0,0,0-.233.25c-.011.04-.152.072-.315.072s-.3.039-.3.087-.1.087-.223.087-.223.039-.223.087-.238.089-.726.092c-2.974.02-3.744.034-3.882.07-.2.051-.128.053,2.933.1.369.005.545.023.391.039-.352.037-.365.231-.019.286.143.023,1.014.053,1.936.067a15.855,15.855,0,0,1,1.981.1,2.168,2.168,0,0,0,.633.046c.181-.018.329,0,.329.033a5.857,5.857,0,0,1-1.945.159,5.032,5.032,0,0,0-1.285.086c-.83.17-.733.307.269.38.81.059.789.061-.658.068a5.509,5.509,0,0,0-1.845.137c-.326.121-.317.136.141.226.363.071.527.181.63.424.138.325.133.328-.578.416a9.137,9.137,0,0,1-1.018.078c-.166-.006-1.539-.008-3.051,0a14.792,14.792,0,0,0-2.6.072,4.422,4.422,0,0,0,1.018.035,3.607,3.607,0,0,1,.865.022,4.364,4.364,0,0,0,.949.053,15.275,15.275,0,0,1,3.466.185,1.8,1.8,0,0,0,.752.143c.432.022.641.069.641.142,0,.094.178.109,1.3.109.717,0,1.371.018,1.454.039.2.052-.739.309-1.128.309a.976.976,0,0,0-.437.09.7.7,0,0,1-.384.066c-.416-.041-1.224.063-1.174.151a1.06,1.06,0,0,0,.429.182c.643.167.441.207-1.046.207a5.4,5.4,0,0,0-1.557.087c-.1.069.071.087.842.087a5.987,5.987,0,0,1,1.249.087,3.272,3.272,0,0,0,.753.091c.449,0,.451.007.044.048-.268.027-.34.059-.188.083.134.021.191.091.127.155-.151.15.924.522,1.511.522.333,0,.435.04.435.171,0,.094-.109.188-.242.209s-.181.1-.108.177c.122.127.065.139-.652.139-.75,0-.786.009-.786.2,0,.134.1.2.309.2.347,0,1.138.281.938.333-.071.018-.593.029-1.161.023-.987-.01-1.028,0-.927.134.058.079.04.133-.04.12a1.018,1.018,0,0,0-.416.089c-.251.1-.2.112.681.114.791,0,.892.014.6.073a1.721,1.721,0,0,0-.5.172,1.928,1.928,0,0,1-.808.1,5.212,5.212,0,0,0-1.011.091,4.526,4.526,0,0,1-.965.078,18.464,18.464,0,0,0-2.515.055,8.772,8.772,0,0,0,1.32.089,11.629,11.629,0,0,1,1.573.118,5.06,5.06,0,0,0,.857.118c.554.036.572.046.214.114-.495.094-.5.206-.018.206.77,0,.052.074-.867.089-1.644.027-3.794.14-4.513.237-.457.062-1.667.109-3.594.139-1.6.025-3.178.064-3.512.086-.521.034-.563.052-.3.121a35.911,35.911,0,0,0,4.07.081,53.211,53.211,0,0,1,6.662.245c.369.033,1.347.066,2.174.072,1.542.011,2.372.084,1.1.1-.389,0-.808.014-.931.022s-.324.018-.447.022a.223.223,0,0,0-.223.21c0,.169-.085.2-.5.214-1.62.035-2.69.046-4.128.042-1.886,0-2.168.023-1.841.182a4.278,4.278,0,0,0,1.509.119c.7,0,1.88.026,2.617.049,1.092.035,1.2.047.558.062l-1.229.032c-.246.007-.664.015-.929.018-.357,0-.453.034-.372.115a9.764,9.764,0,0,0,2.864.181c1.319,0,1.564.038,1.564.231,0,.167-.551.215-2.612.226a10.875,10.875,0,0,0-1.4.061c-.189.079.536.167,1.084.132.459-.03.461-.028.064.089s-.394.121,0,.147c.224.015.856.032,1.406.037s1.04.021,1.09.034-.072.114-.273.223c-.418.229-.46.327-.141.327s.273.095-.112.195c-.184.048-.335.132-.335.186,0,.086-.177.1-1.34.068-1.031-.024-1.34-.014-1.34.046,0,.122-.534.14-4.445.151-2.015.006-3.975.03-4.356.054s1.108.044,3.4.043c2.251,0,4.153.015,4.226.034s-.914.037-2.194.041c-5.194.014-8.273.039-8.393.07-.07.018.262.076.736.129a44.225,44.225,0,0,0,4.429.087c1.962,0,3.5.007,3.429.027s-1.229.037-2.562.038a25.527,25.527,0,0,0-4.546.223c0,.063.135.068,2.346.082a31.742,31.742,0,0,1,4.133.087c0,.03-1.081.065-2.4.078s-2.854.041-3.407.063-1.6.051-2.322.064c-1.494.027-1.738.066-1.555.248.1.094.452.155,1.333.227a11.082,11.082,0,0,1,1.2.131c-.011.077-.379.168-1.058.258-.834.111-.873.139-.335.244.35.068.322.075-.271.064-.473-.008-.684.017-.742.09s.054.1.27.1c.571,0,.4.1-.242.142s-4.689.051-4.946.011c-.15-.023-4.007-.064-12.109-.129-2.027-.016-3.988-.04-4.356-.053-.748-.026-5.174-.1-5.7-.1-1.864.017-6.8,0-6.885-.019a1.3,1.3,0,0,0-.411.036,1.349,1.349,0,0,1-.635-.008,1.33,1.33,0,0,0-.675,0c-.257.055-1.855.072-6.57.068-4.9,0-6.254.01-6.341.069s-2.809.072-13.926.059c-7.6-.009-14.871-.016-16.161-.016s-2.647,0-3.016,0-1.173,0-1.787,0c-2.525.005-12.319,0-12.733,0-.246,0-1.251-.006-2.234-.006s-3.4-.012-5.361-.029c-3.3-.027-11.247-.043-11.5-.022-.062,0-.177.007-.257,0s-2.389-.02-5.13-.039-5.1-.06-5.252-.092a.712.712,0,0,0-.412,0,1.858,1.858,0,0,1-.523.06c-.326,0-.332-.009-.043-.058.253-.043.16-.054-.375-.045-.391.007-.661.033-.6.058a3.634,3.634,0,0,1-.909.046,3.112,3.112,0,0,1-1.036-.072c-.014-.058-.04-.058-.13,0a1.959,1.959,0,0,1-.969.019,9.794,9.794,0,0,0-2.01.012c-.184.007-1.692-.023-3.351-.066s-3.317-.066-3.686-.051a7.82,7.82,0,0,1-1.017-.019c-.344-.046-7.041-.124-9.8-.115-.788,0-1.542.028-1.675.056a34.222,34.222,0,0,1-3.727.206c-.271-.022-.426-.017-.356.013.148.062-3.758.245-5.208.244-.553,0-1.156,0-1.34.006s-1.308,0-2.5,0-2.5.009-2.908.029a6.876,6.876,0,0,1-.853.008Z" transform="translate(0 0)" fill="#db1162"/>
  </g>
</svg>
