<svg xmlns="http://www.w3.org/2000/svg" width="352" height="80" viewBox="0 0 352 80">
  <g id="layer1" transform="translate(313.373 -194.232)">
    <path id="path3383" d="M-155.9,195.089a.363.363,0,0,1,.35-.015c.146.059.1.1-.11.112C-155.85,195.194-155.958,195.151-155.9,195.089Zm-148.22,18.177a.7.7,0,0,1,.457,0c.126.051.023.094-.229.094S-304.243,213.318-304.117,213.266Zm-.686-.063c0-.1.036-.186.081-.186s.132.083.194.186.026.186-.081.186A.19.19,0,0,1-304.8,213.2Zm1.779.249a1.03,1.03,0,0,1,.549-.007c.178.047.077.089-.225.092s-.447-.035-.324-.086Zm2.476.2a.363.363,0,0,1,.35-.015c.146.059.1.1-.11.112-.193.008-.3-.036-.24-.1Zm331.31,52.264a.183.183,0,1,1,.183.186A.185.185,0,0,1,30.763,265.912Zm-.914.18c0-.266.277-.351.557-.171.146.094.224.178.174.188l-.411.079c-.176.034-.32-.01-.32-.1Zm-1.28,1.125c0-.1.123-.132.274-.073s.274.14.274.18-.123.073-.274.073S28.569,267.316,28.569,267.217Zm.64,1.293c-.3-.13-.309-.162-.056-.173a.512.512,0,0,1,.422.173c.13.213.124.213-.366,0Zm-1.482-.031c-.052-.085.029-.155.18-.155a.473.473,0,0,1,.368.155c.052.085-.029.155-.18.155A.473.473,0,0,1,27.727,268.479Zm-306.766,2.92c-.039-.038-2.375-.125-5.191-.192s-5.491-.155-5.943-.194-1.934-.123-3.292-.185a28.019,28.019,0,0,1-2.831-.221c-.741-.22.321-.392,1.374-.223.55.089,2.852.212,5.115.275,5.148.142,5.746.175,5.993.33a.215.215,0,0,0,.3-.04,10.1,10.1,0,0,1,3.308.041c.4.038,1.383.08,2.179.093a6.348,6.348,0,0,1,1.372.092,10.853,10.853,0,0,1-2.383.224Zm12.73.08c-.062-.1.015-.186.172-.186s.285.083.285.186a.18.18,0,0,1-.172.186A.392.392,0,0,1-266.309,271.48Zm-3.564.015c-.684-.186-.215-.339.821-.268.5.034,1.232.069,1.619.077s.661.059.607.113A10.254,10.254,0,0,1-269.873,271.495Zm-2.979.057c-.022-.022-.68-.078-1.463-.124a6.306,6.306,0,0,1-1.54-.2,8.545,8.545,0,0,1,2.063-.009c1.2.061,2.2.135,2.235.165s-.24.09-.6.132a2.992,2.992,0,0,1-.7.037Zm9.561.105c-1.358-.056-2.222-.131-1.92-.168a45.9,45.9,0,0,1,6.181.029c.158.1.143.149-.055.167a35.818,35.818,0,0,1-4.206-.028Zm6.858.2a5.382,5.382,0,0,1-1.975-.242,2.206,2.206,0,0,1,.914-.124c.382.011,1.668.007,2.858-.012a12.781,12.781,0,0,1,2.271.078c.363.369-.723.449-4.068.3Zm-39.043-55.694c0-.108-.082-.145-.183-.082s-.183.152-.183.2.082.082.183.082a.191.191,0,0,0,.183-.2Zm322.667.358c.149-.151-.953-.34-1.548-.266-.8.1-.838.151-.183.268a3.142,3.142,0,0,0,1.731,0ZM-307.1,220.826c.058-.095-.067-.228-.277-.3-.434-.14-.631-.023-.454.27a.463.463,0,0,0,.731.026Zm5.117,4.05a1.043,1.043,0,0,0-.685-.16l-.583.007.448.252c.462.26,1,.2.82-.1Zm3.029,30.828c0-.1-.226-.184-.5-.183-.392,0-.442.043-.229.183C-299.325,255.939-298.951,255.939-298.951,255.7Zm-1.554,2.614c.311-.072-.518-.36-1.074-.374-.421-.01-.485.037-.32.238A1.654,1.654,0,0,0-300.505,258.319ZM22.27,265.744c-.056-.093-.267-.125-.468-.071-.5.134-.458.239.1.239.257,0,.422-.076.366-.168Zm-1.348.041a.363.363,0,0,0-.351.015c-.061.062.047.106.24.1C21.025,265.889,21.068,265.844,20.922,265.785Zm-.664-.041c-.056-.093-.267-.125-.468-.071-.5.134-.458.239.1.239.257,0,.422-.076.366-.168Zm.858,1.159a.7.7,0,0,0-.457,0c-.126.052-.023.094.229.094S21.242,266.954,21.117,266.9Zm-129.06,5.505a.481.481,0,0,0-.377-.186c-.145,0-.263.083-.263.186s.169.186.377.186S-107.881,272.51-107.944,272.408Zm-39.957.707c31.572.276,37.491.2,38.716-.5.261-.148.2-.2-.359-.308-.649-.124-10.43.006-14.768.194-2.4.1-16.091.115-20.756.016-7.816-.166-9.12-.146-9.817.15-.984.418-1.121.758-.222.55.392-.09,3.634-.139,7.2-.108Zm28.89,1.084c-.049-.049-7.083-.145-15.632-.212-14.829-.117-17.216-.15-27.156-.38-2.364-.055-6.067-.135-8.229-.18s-5.66-.13-7.772-.191c-4.263-.123-4.241-.123-4.755-.1-.6.021-25.761-.156-26.059-.183-.151-.014-.85-.01-1.554.01s-2.432-.01-3.84-.065-5.07-.145-8.138-.2c-5.349-.1-8.032-.156-17.921-.4-6.421-.159-10.663-.259-10.921-.257-.124,0-.176-.122-.117-.279.081-.216.3-.259.954-.186.866.1,7.839.136,8.97.051.705-.053.936-.4.438-.657a31.566,31.566,0,0,0-4.263-.22c-2.162-.026-4.467-.074-5.12-.1s-3.493-.1-6.309-.163-5.738-.148-6.492-.2-3.305-.141-5.669-.2-4.544-.144-4.846-.187-1.66-.115-3.017-.159c-3.408-.111-6.682-.272-7.772-.382-1.225-.123-4.8-.341-5.486-.334-.3,0-1.166-.064-1.92-.15s-2.277-.2-3.383-.263-2.217-.141-2.469-.182-1.062-.123-1.8-.181a4.946,4.946,0,0,1-2.155-.565,3.534,3.534,0,0,0-1.348-.46c-.414,0-.511-.067-.425-.294.061-.162.161-.224.223-.139a4.708,4.708,0,0,0,1.575.157c.8,0,2.512.063,3.795.138a6.2,6.2,0,0,0,2.332-.045c0-.25-1.3-.892-1.685-.83a4.219,4.219,0,0,1-1.189-.194l-.876-.244.64-.041c.575-.037.548-.056-.274-.186a17.086,17.086,0,0,0-1.981-.161c-.766-.012-1.046-.082-.991-.248a.659.659,0,0,1,.518-.287,3.46,3.46,0,0,0,.717-.169.918.918,0,0,1,.431-.077.632.632,0,0,0,.408-.176q.35-.294,2.453.121a34.168,34.168,0,0,0,6.218.082c0-.1-.309-.2-.686-.213-.828-.029-1.2-.057-2.972-.223-.754-.071-1.948-.169-2.652-.219a25.5,25.5,0,0,1-4.779-.684,2.209,2.209,0,0,0-.914-.179c-.909-.027-1.347-.261-1.347-.718,0-.245.124-.365.378-.365.561,0,1.085-.341.974-.634-.053-.141.011-.252.144-.246s.57-.007.973-.028c.686-.037.641-.066-.731-.473-.8-.239-1.732-.492-2.062-.563-.419-.09-.584-.221-.549-.437.028-.172-.054-.287-.186-.26-.175.036-.19-.039-.056-.294.339-.642.708-.806,1.7-.753.742.04.981-.013,1.022-.225.056-.3-.846-.713-1.618-.746-.389-.017-.37-.043.15-.212.641-.209.7-.338.4-.9-.172-.326-.145-.353.254-.251.246.063.5.024.569-.087a3.538,3.538,0,0,1,1.529-.224c1.27-.021,1.327-.037.584-.162a13.627,13.627,0,0,0-2.24-.075c-.835.037-1.417-.011-1.417-.117s-.2-.18-.446-.18a.755.755,0,0,1-.559-.186c-.062-.1.036-.188.218-.19.595-.009,3.792-.132,4.354-.169s.548-.036.1-.218a4.858,4.858,0,0,0-1.1-.247c-1.588-.16-2.251-.35-2.334-.671a.661.661,0,0,0-.433-.419c-.388-.1-.478-.488-.12-.517.126-.01,1.093-.014,2.149-.009,2.719.013,4.519-.162,4.1-.4-.353-.2-.6-.24-3.094-.5-1.848-.194-3.3-.489-2.743-.555a3.007,3.007,0,0,1,.549-.02c.1.013-.1-.228-.45-.535a2.316,2.316,0,0,0-.9-.558c-.146,0-.212-.055-.146-.122s.029-.234-.083-.371-.148-.249-.079-.249,0-.186-.16-.412c-.426-.617-.352-.887.241-.887.782,0,1.669-.21,1.669-.394,0-.089-.119-.162-.263-.162-.5,0-.487-.373.024-.571.5-.192.5-.208.159-.464a1.309,1.309,0,0,0-.573-.265c-.12,0-.258-.156-.307-.346-.061-.235-.435-.449-1.164-.665a11.383,11.383,0,0,1-1.393-.489,2.127,2.127,0,0,0-.823-.173,1.763,1.763,0,0,1-.775-.176c-.232-.149-.226-.189.038-.292.449-.175.222-1.1-.526-2.152a3.836,3.836,0,0,1-.614-1.1,1.127,1.127,0,0,0-.292-.567c-.338-.379-.172-.8.25-.636a.35.35,0,0,0,.415-.1c.1-.156.39-.151,1.142.02,1.03.234,1.709.147,1.5-.192a.707.707,0,0,0-.514-.2c-.373-.012-.376-.023-.047-.154.444-.176.28-.266-1.067-.581a3.245,3.245,0,0,1-2.284-1.613l-.209-.412,1.512.118c1.4.109,1.493.094,1.261-.191-.213-.262-.213-.312,0-.33a3.7,3.7,0,0,0,.434-.065,4.575,4.575,0,0,1,.5-.071c.719-.063.078-.552-1.143-.872-.05-.013-.256-.087-.457-.165s-.469-.172-.594-.21a.449.449,0,0,1-.229-.426c0-.34.044-.345.96-.09a9.824,9.824,0,0,1,1.234.41c.331.173,1.189-.014,1.189-.259,0-.1-.165-.206-.366-.244a.806.806,0,0,1-.494-.295,2.148,2.148,0,0,0-.914-.466c-1.636-.5-1.724-.559-.695-.455a17.518,17.518,0,0,1,1.737.269,11.168,11.168,0,0,0,1.92.174c.807.006,1.1.063.919.18-.237.152-.237.182,0,.252.447.132,2.448.494,3.305.6.442.054,1.339.177,1.993.273a18.561,18.561,0,0,0,3.657.312,27.892,27.892,0,0,0-3.566-.8c-.3-.043-.8-.126-1.1-.184s-1.115-.174-1.806-.257a3.865,3.865,0,0,1-1.372-.322,4.81,4.81,0,0,0-1.485-.412,6.026,6.026,0,0,1-1.628-.451c-.141-.116-.265-.179-.274-.14a3.5,3.5,0,0,1-1.673-.365.549.549,0,0,0-.425-.169,1.7,1.7,0,0,1-.84-.659c-.285-.362-.626-.617-.758-.565a.286.286,0,0,1-.337-.063c-.149-.245.809-.8,1.15-.663a57.3,57.3,0,0,0,5.941.587c1.037,0,.449-.259-2-.877a21.179,21.179,0,0,0-3.867-.716c-.307-.019-.291-.659.023-.924a.655.655,0,0,1,.695-.042c.762.294,2.893.464,2.893.23,0-.114-.267-.22-.594-.235a6.731,6.731,0,0,1-.777-.071,5.369,5.369,0,0,0-.686-.065c-.277-.012-.5-.128-.5-.258,0-.234-1.546-.692-2.337-.692-.235,0-.406-.115-.406-.272a.672.672,0,0,0-.366-.47c-.2-.109-.366-.144-.366-.077s-.123.018-.274-.109c-.586-.493-.277-.6,1.382-.463,1.457.117,1.685.094,1.889-.19.307-.427,1.427-.6,2.672-.408,2.38.362,2.837.378,2.6.092a.815.815,0,0,0-.634-.232,1.061,1.061,0,0,1-.6-.1,4.9,4.9,0,0,0-1.28-.263c-1.647-.189-2.834-.622-2.834-1.034,0-.231-.223-.416-.686-.57a2.151,2.151,0,0,1-.915-.556,1.472,1.472,0,0,0-.777-.45c-.342-.076-.548-.239-.548-.432,0-.271.177-.3,1.4-.216a3.4,3.4,0,0,0,1.691-.124c.162-.12.253-.252.2-.294a32.655,32.655,0,0,0-3.977-.807c-1.425-.183-1.163-.477.385-.431a5.661,5.661,0,0,0,1.554-.092c.386-.242.238-1.174-.248-1.561a2.194,2.194,0,0,1-.457-.431,18.439,18.439,0,0,1,2.2.1,10.816,10.816,0,0,0,2.326.036c.223-.226-.383-.475-1.165-.478-1.1,0-1.9-.2-1.9-.467,0-.128-.267-.366-.594-.529-.571-.286-.576-.3-.137-.323a5.225,5.225,0,0,0,.64-.069,5.02,5.02,0,0,1,.549-.074c.305-.026.32-.061.091-.211s-.2-.18.112-.183a9.185,9.185,0,0,1,1.28.169,11.615,11.615,0,0,0,4.371-.007c.1-.053,1.761-.118,3.693-.145s3.9-.105,4.374-.174c1.025-.149,1.32-.585.4-.6a28.747,28.747,0,0,1-3.993-.334c-.376-.088,1.547-.154,4.663-.16,7.707-.015,10.149-.069,10.149-.226,0-.076-.1-.145-.229-.152s-.763-.063-1.417-.125-2.262-.147-3.574-.188c-2.529-.08-3.681-.23-3.845-.5a.764.764,0,0,0-.547-.165c-.308,0-.446-.1-.446-.334a.909.909,0,0,0-.218-.555c-.169-.171-.056-.211.5-.176.513.032.718-.029.721-.216a.345.345,0,0,1,.3-.305c1.364-.2,1.447-.791.094-.669-.22.02-.306-.059-.244-.224.093-.245-.46-.49-1.7-.755a3.251,3.251,0,0,1-1.1-.658,3.17,3.17,0,0,0-.823-.58c-.38-.039.759-.317,1.374-.335a3.616,3.616,0,0,0,1.342-.4,2.016,2.016,0,0,1,1.5-.259,1.33,1.33,0,0,0,1.289-.269,1.774,1.774,0,0,1,.739-.391.253.253,0,0,0,.25-.254c0-.251-.146-.282-2.779-.591-.879-.1-1.05-.184-1.1-.52-.042-.3-.2-.412-.636-.455a1.148,1.148,0,0,1-.883-.526c-.282-.437-.282-.493,0-.81a1.2,1.2,0,0,0,.243-.861c-.057-.486,0-.534.854-.736,1.25-.295,1.554-.44,1.554-.743,0-.142.165-.259.366-.259s.366-.067.366-.148c0-.3-.449-.594-.905-.6-.5-.009-2.45-.515-2.066-.536.126-.007.229-.212.229-.457a.73.73,0,0,1,.9-.682c.221.038.225,0,.023-.249-.133-.162-.158-.295-.057-.295s.227-.167.28-.371.027-.328-.057-.275a.2.2,0,0,1-.268-.093c-.074-.121.4-.193,1.313-.2,3.687-.03,4.62-.091,4.839-.313.183-.186.011-.233-.86-.238-.983-.006-1.055-.032-.743-.271a.559.559,0,0,1,.669-.09,21.1,21.1,0,0,0,5.55-.174,83.536,83.536,0,0,1,8.5-.533c.45.106,8.648-.3,8.729-.436a.178.178,0,0,1,.237-.082,35.2,35.2,0,0,0,6.057,0c1.861-.076,5.4-.131,7.863-.124s6.661.014,9.326.015c5.092,0,7.412.04,8.778.147.453.036,10.163.1,21.579.146,19.66.077,28.469.176,34.288.383,1.408.05,4.947.136,7.863.192s6.782.134,8.589.175c2.062.047,3.186.011,3.017-.1s.163-.163,1.012-.146c1.269.026,1.272.027.366.154-.781.109-.666.132.788.156,1.226.021,1.667-.03,1.574-.181s.191-.176,1.041-.086a65.717,65.717,0,0,0,8,.033c.214-.134,17.957-.16,18.089-.026.043.044.292,0,.553-.1.676-.261,22.852-.174,24.938.1,1.378.18,5.759.3,10.392.278,2.464-.01,4.995,0,5.623.012.936.025,1.143-.024,1.143-.265,0-.261.3-.284,2.606-.194,1.433.056,2.688.108,2.789.117s1.335.015,2.743.013,3.136.026,3.84.062,7.563.116,15.241.177c9.844.079,14.031.053,14.2-.087.255-.215,14.725-.331,16.918-.136.654.058,2.081.193,3.171.3s2.037.182,2.1.167.738.034,1.492.109c1.334.133,4.755.279,9.6.411a70.6,70.6,0,0,1,8.194.437,1.648,1.648,0,0,0,.9,0,9.531,9.531,0,0,1,1.956-.049c.661.05,1.284.086,1.385.08s1.253-.057,2.56-.113,3.241-.141,4.3-.19,2.978-.132,4.271-.184a20.287,20.287,0,0,0,2.5-.188c.082-.051.18,0,.219.124.045.136.493.213,1.2.206.623-.007,1.133.065,1.133.157s.309.129.686.081c1.988-.253,3.886-.311,3.886-.119,0,.112-.242.2-.538.2a.911.911,0,0,0-.67.217q-.132.218.167.1a.612.612,0,0,1,.59.179c.221.225.506.269,1.194.186.895-.108,1.242.111.538.338a.5.5,0,0,0-.366.4.467.467,0,0,1-.366.38c-.2.053-.366.176-.366.272s.075.128.166.071a.875.875,0,0,1,.594.07c.332.135.354.177.1.186a10.2,10.2,0,0,0-2.871.747c0,.082.33.153.733.159a1.244,1.244,0,0,1,1.408,1.262,1.794,1.794,0,0,1-1,2.028c-.536.227-.6.314-.409.548a1.085,1.085,0,0,0,.743.278.884.884,0,0,1,.628.186c.062.1-.063.186-.277.186-.273,0-.372.1-.329.325.046.246.275.339.939.382,1.2.078,1.026.472-.256.594-2.1.2-1.852.778.311.725,1.914-.047,2.159.109.442.281a11.517,11.517,0,0,0-2.246.472l-.96.344,1.039-.058c.795-.045,1.017,0,.948.183a.318.318,0,0,0,.1.364c.323.2.221.442-.216.505-.338.049-.4.158-.353.616.032.306.15.59.262.63a2.417,2.417,0,0,1,.6.51,1.354,1.354,0,0,0,.927.44,4.459,4.459,0,0,1,.941.115c.382.1.362.138-.274.453-.378.187-.928.431-1.221.541-.4.153-.482.253-.32.417.321.326.256.644-.153.752-.694.184-.377.5.5.506.628,0,.793.053.594.183a2.035,2.035,0,0,1-.884.183c-.869,0-.647.453.258.521a35.92,35.92,0,0,1,5.725.741,4.733,4.733,0,0,0,1.941.523c.1.017.718.046,1.372.065.724.021,1.055.088.848.171a12.173,12.173,0,0,1-2.347.069c-1.968-.066-2-.06-1.885.322.107.34.065.375-.33.274-.512-.13-.833.185-.372.364a10.284,10.284,0,0,0,1.883.125,6.3,6.3,0,0,1,1.847.188c.191.13.061.173-.466.155-1.036-.036-1.267-.008-1.124.138.171.174.631.214,2.811.244a10.58,10.58,0,0,0,2.055-.09c.108-.068.14,0,.076.172a.668.668,0,0,1-.627.288.888.888,0,0,0-.633.189c-.063.1-.395.157-.737.119s-.578,0-.523.094-.133.16-.417.155c-1.163-.019-2.619.239-2.619.463,0,.325,2.029.491,4.453.363,1.75-.092,2.012-.066,2.218.22a.913.913,0,0,1,.057.892,5,5,0,0,0-.191.8.259.259,0,0,1-.258.232.264.264,0,0,0-.244.278c0,.153-.083.278-.183.278s-.183.125-.183.278c0,.187-.195.284-.594.294-2.434.065-3.065.11-3.178.225-.16.162-.1.17,2.4.314.3.017.446.074.32.125-.288.118-.3.739-.016.916a6.854,6.854,0,0,0,1.585.214,3.613,3.613,0,0,1,1.621.334.539.539,0,0,0,.518.148c.148-.058.269-.01.269.105,0,.318-.93.614-1.592.507a1.22,1.22,0,0,0-1.052.277c-.68.543-.6.983.22,1.216.663.188.646.2-.538.218-1.045.02-1.266.084-1.511.439-.267.387-.259.436.115.723.3.228.431.58.515,1.356.113,1.04.109,1.051-.473,1.331a2.153,2.153,0,0,1-.833.248c-.136-.019-1.26-.024-2.5-.012-1.6.016-2.215.081-2.125.229.075.124.411.168.834.11.389-.053.708-.021.708.072s.35.169.777.17c1.686,0,2.742.224,2.837.593a.785.785,0,0,0,.615.458c.354.072.525.22.525.455,0,.3.146.348,1.067.348a3.518,3.518,0,0,1,1.19.125c.163.166-.605.988-.923.988a.441.441,0,0,0-.357.289c-.06.159-.2.253-.314.21-.34-.131-1,.2-.961.484a1.348,1.348,0,0,0,.351.581c.526.534.361.662-.856.662-.871,0-1.2.071-1.274.278s.058.278.69.278a1.464,1.464,0,0,1,1.022.278.945.945,0,0,0,.617.291c.367.012.369.021.036.154-.219.087-.278.188-.154.266a.486.486,0,0,1,.1.5c-.124.481.757,1.67,1.237,1.67.273,0,.356.128.356.546a.951.951,0,0,1-.2.67c-.109.068-.148.324-.088.568.1.4.053.444-.534.444-.614,0-.643.03-.643.65,0,.43.085.65.253.65.284,0,.932.9.768,1.067a2.552,2.552,0,0,1-.951.074c-.808-.031-.842-.012-.759.428.048.253.033.427-.033.386s-.219.086-.341.284c-.205.334-.166.36.558.365.647,0,.73.044.493.232a1.5,1.5,0,0,0-.406.551c-.077.209-.314.325-.661.325a1.331,1.331,0,0,0-.827.29,1.13,1.13,0,0,1-.79.25c-.968-.077-2.058.017-2.058.178,0,.089.486.217,1.081.286a2.819,2.819,0,0,1,1.288.377,1.562,1.562,0,0,0,.7.379c.453.115.468.146.175.363-.405.3-.413.66-.015.66.63,0,.042.236-.71.284a12.586,12.586,0,0,0-3.694.759,9.733,9.733,0,0,1-2.942.446c-1.307.081-2.6.206-2.875.276-.426.11-.461.165-.242.388.2.2.939.259,3.332.259,3.047,0,3.378.047,5.453.783a7.774,7.774,0,0,0,1.78.229c1.262.035,1.942.27.9.311a5.732,5.732,0,0,0-.762.07,3.7,3.7,0,0,1-.366.07c-.1.013-.183.316-.183.673,0,.54-.069.655-.411.684a32.827,32.827,0,0,1-3.379.136c-1.544-.014-1.775.075-1.507.583.152.287.4.364,1.235.38.575.011,1.539.082,2.142.158.894.113.978.15.457.2-.352.034-.8.08-1.006.1s-.543.049-.76.059c-.293.014-.371.108-.3.368.1.388.84.571,2.344.579,1.08.006,1.28.122,1.28.739,0,.535-.451.688-2.138.723a2.437,2.437,0,0,0-1.147.2c-.155.254.438.536.888.422.376-.1.377-.088.053.286s-.323.386,0,.472a7.418,7.418,0,0,0,1.151.12,3.275,3.275,0,0,1,.893.108,1.593,1.593,0,0,1-.223.714c-.342.732-.377,1.046-.115,1.046s.223.3-.092.623a1.007,1.007,0,0,0-.274.6c0,.275-.145.3-1.1.216-.844-.078-1.1-.044-1.1.147,0,.39-.437.448-3.639.484a31.852,31.852,0,0,0-3.566.173c-.318.078.907.139,2.783.139a29.024,29.024,0,0,1,3.459.11,6.61,6.61,0,0,1-1.8.13,65.454,65.454,0,0,0-6.87.225c-.057.058.214.243.6.412.57.249,1.267.3,3.625.28a16.274,16.274,0,0,1,2.807.087,10.772,10.772,0,0,1-2.1.123c-1.956.009-3.721.347-3.721.715,0,.2.111.216,1.92.263,2.938.075,3.383.111,3.383.277a5.818,5.818,0,0,1-1.966.248c-1.081.041-2.336.132-2.789.2s-1.308.163-1.9.206c-1.223.088-1.423.212-1.273.794.078.3.37.5,1.091.727a3.043,3.043,0,0,1,.982.421c-.009.248-.311.538-.866.827-.683.355-.715.445-.274.78.287.218.263.24-.221.206-.387-.027-.56.055-.608.287-.041.2.044.325.221.325.468,0,.328.321-.2.455a21,21,0,0,1-4.048.035c-.123-.075-3.28-.206-9.913-.412-1.66-.051-3.264-.128-3.566-.169-.613-.085-4.236-.325-4.663-.31-1.526.055-5.565.012-5.636-.059-.05-.051-.2,0-.336.114-.182.153-.317.147-.52-.024-.219-.184-.33-.184-.552,0s-1.519.23-5.378.216c-4.008-.014-5.119.033-5.191.221s-2.3.229-11.4.188c-6.22-.028-12.174-.051-13.23-.05s-2.167,0-2.469-.006-.96,0-1.463,0c-2.067.017-10.085.011-10.424-.009-.2-.012-1.024-.02-1.829-.018s-2.78-.039-4.389-.091c-2.7-.088-9.207-.136-9.418-.07a.586.586,0,0,1-.21.013c-.065-.009-1.955-.065-4.2-.125a28.7,28.7,0,0,1-4.3-.294c-.145-.122-.258-.119-.337.011a.539.539,0,0,1-.428.192c-.267,0-.272-.028-.035-.186.207-.138.131-.174-.307-.144-.32.022-.541.106-.492.186s-.286.147-.744.147c-.537,0-.839-.082-.848-.232-.011-.186-.033-.186-.107,0-.105.265-.793.319-.793.062,0-.147-.373-.138-1.646.038-.151.021-1.385-.074-2.743-.212a22.354,22.354,0,0,0-3.017-.164,1.679,1.679,0,0,1-.833-.062,78.154,78.154,0,0,0-8.021-.369,3.927,3.927,0,0,0-1.372.18,7.713,7.713,0,0,1-3.051.66c-.222-.071-.349-.053-.291.042.121.2-3.077.785-4.263.781-.453,0-.946.008-1.1.02s-1.071.012-2.045,0a17.92,17.92,0,0,0-2.38.093,1.46,1.46,0,0,1-.7.026Z" transform="translate(0)" fill="#db1162"/>
  </g>
</svg>
