<svg xmlns="http://www.w3.org/2000/svg" width="256" height="80">
  <g id="layer1" transform="translate(216.885 -530.1)">
    <path id="path2987-1" d="M-84.472,530.642c-.077-.239-.1-.472-.04-.518.162-.137.35.331.262.654-.069.254-.1.234-.221-.136Zm-25.533-.221c0-.1.058-.175.127-.173s.124.081.123.178-.058.175-.127.173S-110.007,530.518-110.006,530.421Zm26.8.868c-.044-.1.073-.173.275-.168.272.007.309.047.162.176-.242.214-.344.212-.437-.008Zm-25.62-.044c-.066-.223-.049-.366.047-.409a.369.369,0,0,0,.15-.315c0-.137.059-.248.127-.247.156,0,.159.23.008.448a1.588,1.588,0,0,0-.173.515c-.058.344-.061.344-.16.007Zm51.659,1.6a.177.177,0,0,1,.182-.172.314.314,0,0,1,.256.181c.042.1-.04.175-.182.172s-.256-.084-.256-.181ZM.081,534.177c-.154-.045-.28-.155-.279-.245,0-.257.33-.185.5.11.084.147.132.255.107.242s-.172-.061-.327-.106Zm-34.825-.72a.117.117,0,0,1,.118-.176c.219,0,.251.11.076.258C-34.615,533.592-34.7,533.556-34.744,533.457ZM30.1,534.88c-.042-.1-.016-.176.057-.175a.161.161,0,0,1,.131.178c0,.1-.027.175-.057.175S30.138,534.977,30.1,534.88ZM27.034,535c0-.1.311-.17.689-.162s.686.092.685.189-.311.17-.689.162-.686-.092-.685-.189Zm-121.628-2.345c-.042-.1-.016-.176.057-.175a.161.161,0,0,1,.131.178c0,.1-.027.175-.057.175s-.089-.081-.131-.178Zm-16.981-.282c-.106-.153.083-.571.257-.568.1,0,.176-.17.178-.387l0-.391.195.4a1.148,1.148,0,0,1,.129.633c-.065.228-.654.467-.763.31Zm-4.577.476c0-.284.2-.345.305-.095a.214.214,0,0,1-.12.256C-116.081,533.065-116.154,533-116.152,532.846Zm-2-.023c0-.151.059-.273.128-.272a.152.152,0,0,1,.123.168.412.412,0,0,1-.128.272C-118.1,533.049-118.153,532.974-118.152,532.823Zm1.5.184c0-.151.058-.224.127-.163a.418.418,0,0,1,.122.276c0,.091-.058.164-.127.163S-116.655,533.157-116.654,533.007Zm-.665.149a.3.3,0,0,1-.01-.267c.082-.18.3-.019.3.219,0,.189-.171.217-.289.047Zm-7.4-.03c.043-.1.132-.173.2-.172s.117.081.116.178a.185.185,0,0,1-.2.172A.118.118,0,0,1-124.715,533.125Zm-28.924-.459a.344.344,0,0,1,.127-.184c.069-.058.125-.022.124.08s-.058.185-.127.184S-153.64,532.708-153.639,532.666Zm8.19.36c.049-.172.119-.269.157-.214s0,.2-.088.313C-145.506,533.3-145.52,533.275-145.45,533.025Zm-30.23-.6c.043-.152.134-.276.2-.274.164,0,.057.4-.13.484C-175.7,532.672-175.728,532.591-175.68,532.421Zm214.311,5.006a.345.345,0,0,1,.127-.184c.069-.058.125-.022.124.08s-.058.185-.127.184-.125-.037-.124-.08ZM-198.5,533.039c0-.167.376-.243.442-.09.04.093-.044.167-.185.164S-198.5,533.077-198.5,533.039Zm235.953,4.853a.281.281,0,0,1,.137-.3c.3-.153.92-.1.918.075,0,.088-.128.121-.282.074-.207-.063-.183-.014.092.185l.372.27-.592-.046c-.325-.026-.616-.139-.646-.253Zm-220.689-4.085c-.022-.45-.014-.457.15-.131a.8.8,0,0,1,.114.476C-183.1,534.423-183.217,534.268-183.24,533.807Zm-20.007,1.807c-.46-.323-.317-.495.4-.481a2.748,2.748,0,0,0,.876-.09c.125-.065.2-.008.2.152,0,.143-.214.339-.487.449C-202.832,535.873-202.881,535.871-203.247,535.614Zm241.053,5.628c-.139-.2.048-.414.358-.408.216,0,.28.08.227.268A.341.341,0,0,1,37.806,541.243Zm-241.975-4.026c0-.1.058-.175.127-.173s.124.081.123.178-.058.175-.127.173S-204.169,537.314-204.168,537.217Zm1.105.178c-.188-.173-.182-.177.3-.248.189-.028.344.014.343.094C-202.421,537.462-202.873,537.57-203.063,537.4Zm-.586.052c.053-.273.266-.364.292-.126.011.1-.006.107-.036.023s-.11-.046-.177.084c-.082.16-.108.166-.079.018Zm241.224,5.847c0-.1.058-.185.127-.184s.125.037.124.08a.344.344,0,0,1-.127.184C37.629,543.433,37.573,543.4,37.574,543.294Zm-.658,3.4c.184-.3.5-.342.5-.059,0,.107-.086.147-.188.09s-.187-.028-.188.065a.156.156,0,0,1-.142.167c-.1,0-.091-.083.018-.263Zm-.067,2.283c-.038-.146-.015-.264.052-.263s.12.121.118.266-.025.263-.052.263-.08-.12-.118-.266Zm-244.588-4.452c0-.1.058-.175.127-.173s.124.081.123.178-.058.175-.127.173S-207.74,544.626-207.739,544.529Zm-.078,8.005c0-.185.242-.259.312-.1a.117.117,0,0,1-.118.176C-207.73,552.614-207.817,552.577-207.817,552.535Zm-1.293,4.451c0-.195.749-.317.826-.135.035.081-.039.152-.163.157a2.722,2.722,0,0,0-.445.064C-209.012,557.1-209.111,557.063-209.11,556.985Zm-.5-.02a.178.178,0,0,1,.189-.167c.1,0,.187.035.187.073s-.085.113-.189.167S-209.61,557.059-209.609,556.966Zm-4.407,11.018c-.107-.251.028-.312.726-.33a1.543,1.543,0,0,0,.751-.16,1.1,1.1,0,0,1,.672-.092c.292.029.531-.011.532-.088s.114-.18.252-.228c.163-.057.25,0,.248.16,0,.136-.059.246-.127.245s-.126.12-.128.269c0,.2-.139.27-.534.264-.292,0-.933.026-1.424.066-.538.044-.924,0-.969-.105Zm-.885-.041c-.087-.2.246-.341.429-.177.108.1.077.165-.107.229C-214.723,568.044-214.868,568.021-214.9,567.943Zm7.109,1.365c-.042-.1-.016-.176.057-.175a.161.161,0,0,1,.131.178c0,.1-.027.175-.057.175S-207.751,569.406-207.793,569.308Zm-4.438.188c0-.151.059-.273.128-.272a.152.152,0,0,1,.123.168.412.412,0,0,1-.128.272C-212.177,569.723-212.232,569.647-212.231,569.5Zm-2.126.211c0-.1.241-.177.533-.179s.658-.022.813-.043.281.027.28.108-.24.148-.533.149a4.6,4.6,0,0,0-.813.071c-.155.038-.281-.01-.28-.106Zm2.576,4.9c0-.171.354-.228.512-.083.127.117.081.159-.169.156-.189,0-.343-.035-.343-.073Zm-4.25.163c0-.1.027-.175.057-.175s.089.081.131.178.016.176-.057.175A.161.161,0,0,1-216.031,574.773Zm-.75-.014c-.154-.144-.143-.173.064-.169a.762.762,0,0,1,.436.179c.154.144.143.173-.064.169A.762.762,0,0,1-216.781,574.759Zm1.429,4.544c.075-.381.448-.314.5.09.026.207-.047.279-.262.257S-215.4,579.537-215.352,579.3Zm.476,5.158c0-.1.027-.175.057-.175s.089.081.131.178.016.176-.057.175A.161.161,0,0,1-214.876,584.461Zm.649.259c-.133-.21-.1-.248.228-.242.23,0,.355.079.307.185s-.127.135-.185.083-.124-.022-.148.065-.115.046-.2-.091Zm4.434,3.928c0-.259.885-.4,1.317-.207.281.124.307.166.107.173-.145.006-.525.055-.845.111C-209.574,588.786-209.794,588.757-209.793,588.648Zm1.288,2.439c-.22-.138-.209-.156.1-.162.189,0,.343.073.342.17,0,.206-.1.2-.437-.008Zm.748,2.358a.611.611,0,0,1-.08-.3c0-.11.059-.1.148.029s.116.251.08.3S-207.712,593.509-207.757,593.444Zm.332,1.873c-.04-.093.044-.167.185-.165.3.005.331.1.072.239A.181.181,0,0,1-207.425,595.317Zm.81.55c0-.328.037-.374.152-.208a.3.3,0,0,1,0,.422c-.118.162-.151.114-.148-.214Zm-.806.606c.133-.134.287-.174.347-.09a.257.257,0,0,0,.312.054c.112-.054.161-.032.107.048a.941.941,0,0,1-.552.188C-207.622,596.712-207.64,596.7-207.42,596.474Zm-1.4.6a.32.32,0,0,1,.265-.184.177.177,0,0,0,.182-.172c0-.1.156-.165.345-.152l.343.024-.314.116c-.172.064-.286.192-.253.285s-.1.192-.3.219c-.231.033-.327-.016-.272-.137Zm-.384,1.022c-.039-.091.073-.163.249-.16s.319.068.318.145C-208.637,598.276-209.119,598.289-209.2,598.091Zm1.426,3.138c-.192-.335-.083-.4.677-.416.344-.006.54.036.436.094a.805.805,0,0,0-.282.3c-.064.13-.094.118-.093-.038,0-.127-.057-.182-.128-.122a.25.25,0,0,0-.058.273c.039.091.011.164-.062.162s-.132-.1-.132-.222c0-.169-.024-.168-.1.006s-.134.176-.254-.033Zm-1.139.042c0-.1.027-.175.057-.175s.089.081.131.178.016.176-.057.175A.161.161,0,0,1-208.917,601.272Zm186.262,5.876c0-.1.111-.174.244-.171a.372.372,0,0,1,.318.182c.043.1-.063.174-.244.171S-22.656,607.244-22.655,607.147Zm-21.4.175a.518.518,0,0,1,.375,0c.121.047.052.085-.155.085s-.305-.039-.22-.085Zm3.031.179c0-.094.086-.123.188-.065s.186.136.186.174-.085.067-.188.065A.182.182,0,0,1-41.028,607.5Zm-.75.009a.166.166,0,0,1,.183-.143c.1,0,.152.069.116.149a.235.235,0,0,1-.183.143A.137.137,0,0,1-41.778,607.511Zm-.562-.04a.116.116,0,0,1,.119-.173.189.189,0,0,1,.193.18c0,.1-.055.175-.119.173s-.152-.082-.193-.179Zm35.779.745c-.148-.264-.141-.285.059-.175a1.045,1.045,0,0,0,.342.127c.063,0,.114.081.113.178,0,.28-.33.2-.515-.131Zm-46.338-.773c.452-.194.752-.188.75.014,0,.1-.241.163-.533.148C-53.133,607.582-53.165,607.557-52.9,607.443Zm-3.5.108a.617.617,0,0,1,.376-.153c.124.009.1.063-.064.159-.345.2-.543.2-.312-.005Zm-8.09.089a.19.19,0,0,1,.24-.009c.1.058.069.1-.077.1S-64.531,607.7-64.488,607.641Zm-3.237.08c.034-.076.277-.147.54-.157.372-.015.422.014.226.131C-67.278,607.885-67.808,607.9-67.726,607.721Zm-.765,0a.74.74,0,0,1,.437.008c.12.047.021.081-.219.076s-.339-.043-.218-.085Zm-.687-.008a.354.354,0,0,1,.312.005c.085.05.015.089-.157.086s-.242-.045-.155-.092Zm-2.184-.032a.19.19,0,0,1,.24-.009c.1.058.069.1-.077.1s-.205-.038-.163-.1Zm-3.034.154c0-.038.088-.114.2-.17s.162-.027.117.071C-74.159,607.905-74.4,607.98-74.4,607.838Zm-1.965-.075a.19.19,0,0,1,.24-.009c.1.058.069.1-.077.1S-76.4,607.821-76.361,607.763Zm-.817-.025a.518.518,0,0,1,.375,0c.121.047.052.085-.155.085s-.305-.039-.22-.085Zm70.118,1.994c0-.1.058-.175.127-.173s.124.081.123.178-.058.175-.127.173S-7.061,609.829-7.06,609.733Zm-200.154-3.683c0-.1.027-.175.057-.175s.089.081.131.178.016.176-.057.175A.161.161,0,0,1-207.214,606.049Zm.246.424a2.111,2.111,0,0,1,.273-.4c.3-.388.484-.324.479.171,0,.252-.091.324-.378.307C-206.8,606.538-206.968,606.5-206.968,606.474Zm73.618,1.948a.19.19,0,0,1,.24-.009c.1.058.069.1-.077.1S-133.392,608.479-133.35,608.422Zm-10.745-.207a.19.19,0,0,1,.24-.009c.1.058.069.1-.077.1S-144.137,608.272-144.1,608.215Zm-11.716.624c-.107-.154.421-.593.561-.467a.236.236,0,0,1,.062.254c-.084.185-.536.34-.623.213Zm27.79.671c0-.1.027-.175.057-.175s.089.081.131.178.016.176-.057.175A.161.161,0,0,1-128.021,609.509Zm-80.967-.858c.247-.218.412-.214.312.006a.328.328,0,0,1-.29.167c-.182-.005-.185-.03-.022-.173ZM-.764,534.285a.118.118,0,0,0-.116-.178.185.185,0,0,0-.2.172c0,.1.051.177.116.178s.153-.076.2-.172Zm11.68.43a.173.173,0,0,0-.186-.15.169.169,0,0,0-.189.143.173.173,0,0,0,.186.15A.17.17,0,0,0,10.916,534.715Zm10.677.7c-.042-.1-.1-.178-.131-.178s-.056.078-.057.175a.161.161,0,0,0,.131.178C21.609,535.6,21.635,535.516,21.594,535.419Zm-63.78-1.328c0-.043-.087-.079-.194-.081a.117.117,0,0,0-.118.176c.07.164.31.09.312-.1ZM23.9,535.716c0-.043-.055-.079-.124-.08s-.126.081-.127.184.055.138.124.08A.346.346,0,0,0,23.9,535.716Zm-.411.033c-.027-.114-.258-.212-.515-.216a.655.655,0,0,1-.645-.361c-.172-.34-.177-.337-.147.085.024.341-.02.423-.2.376-.127-.033-.2.016-.159.109.109.257,1.725.263,1.665.006Zm-2.1.061a3.349,3.349,0,0,0-.1-.458c-.079-.292-.1-.279-.24.127s-.126.454.1.458c.136,0,.244-.055.24-.127Zm-23.571-.147c.082-.42-.038-.565-.289-.348-.148.127-.15.159-.012.164s.141.057.013.267-.123.261.03.264c.1,0,.219-.154.257-.346Zm37.56,1.795c0-.088-.111-.12-.249-.072s-.251.117-.251.154.112.07.249.072S35.381,537.546,35.382,537.458Zm-202.28-3.477a.536.536,0,0,0-.122-.354c-.071-.063-.126.087-.128.349s.05.414.121.354A.526.526,0,0,0-166.9,533.981Zm-28.075,2.183c.1-.22-.066-.224-.312-.005-.163.144-.16.168.022.173a.328.328,0,0,0,.29-.167Zm230.03,8.994c0-.1-.055-.138-.124-.08a.347.347,0,0,0-.127.184c0,.043.055.079.124.08S35.056,545.26,35.057,545.158Zm-1.378.335c0-.1-.055-.177-.123-.178s-.126.077-.127.173.055.177.123.178S33.678,545.59,33.679,545.493Zm-.853.215a.19.19,0,0,0-.24.009c-.042.058.031.1.163.1s.176-.047.077-.1Zm.968.842a.188.188,0,0,0-.193-.179.116.116,0,0,0-.119.173c.042.1.128.178.193.179S33.793,546.647,33.794,546.55Zm-.75-.009c0-.094-.083-.126-.187-.073s-.189.129-.189.167.084.071.187.073A.178.178,0,0,0,33.044,546.541Zm-.166,3.327a2.027,2.027,0,0,0-.8-.195c-.786-.063-.937-.044-.937.121,0,.072.431.151.958.175S32.978,549.949,32.878,549.868Zm-1.958.331c.054-.006.028-.121-.058-.255-.132-.2-.182-.2-.314.038s-.157.229-.158.032c0-.137-.036-.2-.078-.145a.267.267,0,0,0,.29.4c.12-.03.263-.06.317-.066Zm-231.359,4.193a.19.19,0,0,0-.24.009c-.042.058.031.1.163.1S-200.34,554.45-200.439,554.392Zm-.4.1c0-.1-.055-.138-.124-.08a.347.347,0,0,0-.127.184c0,.043.055.079.124.08s.126-.081.127-.184ZM34.951,561.4a.361.361,0,0,0,.2-.26c0-.251-.328-.187-.5.1S34.6,561.583,34.951,561.4Zm-241.939-4.129c0-.043-.056-.079-.124-.08s-.126.081-.127.184.055.138.124.08a.347.347,0,0,0,.127-.184Zm2.649,4.047c-.144-.208-.437-.176-.439.047,0,.147.092.2.253.143.141-.049.224-.134.186-.19Zm2.422,1.421a.188.188,0,0,0-.193-.179.116.116,0,0,0-.119.173c.042.1.128.178.193.179S-201.919,562.84-201.918,562.743Zm2.364,1.1c-.243-.227-.408-.23-.312-.005a.335.335,0,0,0,.287.179c.182,0,.186-.023.026-.172Zm-.9-.16c.078-.315-.181-.253-.271.064-.048.17-.021.251.07.21a.447.447,0,0,0,.2-.274Zm-.721.014c0-.314-.427-.312-.618,0-.126.208-.087.248.232.241.233-.005.384-.1.386-.245Zm-.974-.115c-.079-.114-.186-.15-.237-.08s-.013.2.085.288C-202.072,564-201.965,563.851-202.151,563.582Zm-1.786,1.133c0-.151-.055-.225-.125-.166a.25.25,0,0,0-.058.273c.1.246.18.2.183-.107Zm236.875,5.534c0-.1-.055-.138-.124-.08a.347.347,0,0,0-.127.184c0,.043.055.079.124.08s.126-.081.127-.184Zm-238.458-3.372a.228.228,0,0,0-.185-.253.355.355,0,0,1-.277-.181c-.056-.11-.092-.094-.094.042a.229.229,0,0,1-.223.223c-.138,0-.082.1.154.252C-205.711,567.249-205.523,567.224-205.52,566.877Zm.262.067c-.041-.059-.071.044-.068.229,0,.2.033.247.074.108a.481.481,0,0,0-.007-.337Zm.978.85c.166-.1.188-.151.064-.159a.618.618,0,0,0-.376.153c-.23.2-.033.207.312.006Zm-.562-.011c0-.193-.018-.352-.044-.352a.781.781,0,0,0-.117.349c-.038.193-.018.351.044.352s.115-.156.117-.349Zm-1.033.574c.505-.1.761-.314.618-.521a1.654,1.654,0,0,0-.781.1,5.231,5.231,0,0,1-1.136.187c-.231,0-.42.057-.421.135C-207.6,568.574-207.125,568.6-205.875,568.357Zm-.415.628c-.042-.1-.1-.178-.131-.178s-.056.078-.057.175a.161.161,0,0,0,.131.178c.073,0,.1-.077.057-.175Zm.42,1.442c-.208-.1-.521.119-.44.31.047.111.165.1.322-.036.136-.116.189-.239.118-.274Zm-3.374.259a.184.184,0,0,0-.186-.179.18.18,0,0,0-.189.172.184.184,0,0,0,.186.179A.18.18,0,0,0-209.243,570.686Zm2.716.163c.15-.512-.229-.607-.995-.248-.746.349-.7.463.159.409a1.891,1.891,0,0,0,.835-.161Zm-.047,1.129c.041-.09-.036-.154-.17-.143s-.217.084-.184.162C-206.847,572.188-206.664,572.178-206.574,571.978Zm-.193,2.095c.063,0,.115-.066.116-.149s-.139-.116-.312-.073-.314.156-.315.252.088.128.2.071a.872.872,0,0,1,.313-.1Zm-1.135-.032c0-.1-.055-.138-.124-.08a.346.346,0,0,0-.127.184c0,.043.055.079.124.08S-207.9,574.143-207.9,574.04Zm-.75.073c0-.043-.055-.079-.124-.08s-.126.081-.127.184.055.138.124.08A.346.346,0,0,0-208.652,574.114Zm2.359,1.55c-.24-.225-.373-.227-.375-.007,0,.1.125.177.279.178.227,0,.246-.031.1-.171Zm-.471,1.917c.061-.078-.2-.147-.584-.155-.407-.008-.75.077-.828.205-.1.173.018.205.584.155A1.876,1.876,0,0,0-206.764,577.58Zm.187,1.593c0-.1-.04-.183-.092-.191s-.2-.046-.336-.084c-.375-.106-.545.138-.2.282.461.19.622.188.624-.006Zm-1.749-.063a.173.173,0,0,0-.186-.15.169.169,0,0,0-.189.143.173.173,0,0,0,.186.15A.17.17,0,0,0-208.326,579.11Zm-.562.018a.32.32,0,0,0-.263-.181.114.114,0,0,0-.112.174.32.32,0,0,0,.263.181A.114.114,0,0,0-208.888,579.128Zm-3.443.7c0-.037-.171-.071-.382-.075s-.353.062-.317.146c.061.143.7.078.7-.071Zm7.281,4.765c.031-.043-.085-.119-.259-.169a.4.4,0,0,0-.469.161c-.13.214-.091.24.259.169A1.26,1.26,0,0,0-205.051,584.6Zm-1.2-.068c0-.151-.055-.225-.125-.166a.25.25,0,0,0-.058.273c.1.246.18.2.183-.107Zm-1.627.243c0-.1-.055-.177-.123-.178s-.126.077-.127.173.055.177.123.178S-207.882,584.868-207.881,584.771Zm-.63.521c0-.094.1-.125.219-.069.189.088.187.064-.018-.178a.508.508,0,0,0-.561-.176c-.43.136-.479.213-.261.413.24.22.619.226.621.011ZM-207,586.35c.307-.266-1.214-.281-2.018-.02-.338.11-.177.145.7.155A3.781,3.781,0,0,0-207,586.35Zm-2.608.2c-.034-.13-.1-.236-.152-.237s-.092.1-.093.232.067.236.152.237S-209.577,586.684-209.611,586.554Zm1.286.19c-.041-.059-.071.044-.068.229,0,.2.033.247.074.108a.481.481,0,0,0-.007-.337Zm3.262,2.672c.222-.022.079-.245-.209-.325-.7-.195-1.271-.045-.944.247A2.052,2.052,0,0,0-205.063,589.416Zm-.772,3.341c0-.076-.107-.14-.239-.143s-.214.058-.181.135a.282.282,0,0,0,.239.143A.162.162,0,0,0-205.835,592.757Zm1.35,2.486c0-.076-.111-.14-.249-.143s-.25.057-.251.133.111.14.249.143S-204.485,595.319-204.484,595.243Zm-.836.7c-.284-.3-.418-.292-.421.029,0,.173.106.251.317.231C-205.132,596.173-205.123,596.15-205.32,595.941Zm1.383.857c-.042-.1-.1-.178-.131-.178s-.056.078-.057.175a.161.161,0,0,0,.131.178C-203.921,596.974-203.9,596.9-203.937,596.8Zm-1.394.237c-.038-.146-.12-.266-.181-.267s-.113.116-.114.261.08.265.181.267S-205.289,597.2-205.331,597.035Zm237.356,5.247a.19.19,0,0,0-.24.009c-.042.058.031.1.163.1s.176-.047.077-.1Zm-.4.005c0-.038-.154-.071-.343-.073-.25,0-.3.04-.169.156.158.145.51.087.512-.083Zm-.87,1.273c-.147-.212-.563-.037-.464.2.038.089.185.121.328.072Q30.878,603.739,30.755,603.56ZM-202.9,599.542c0-.145-.052-.265-.118-.266s-.09.117-.052.263.091.265.118.266.05-.118.052-.263Zm-1-.155q.189-.1-.093-.116c-.189-.013-.281.082-.282.288,0,.19.035.234.093.116a.749.749,0,0,1,.282-.288Zm194.217,7.021c.155-.055.283-.17.284-.256,0-.179-.429-.208-.854-.057-.219.078-.251.143-.127.256.2.181.321.191.7.057Zm-190.852-3.689a.19.19,0,0,0-.24.009c-.042.058.031.1.163.1S-200.436,602.777-200.535,602.719ZM-8.4,606.449l.315-.252-.376.067c-.207.037-.449.072-.539.078-.2.014-.07.367.136.362A1.2,1.2,0,0,0-8.4,606.449Zm-3.226.088a.19.19,0,0,0-.24.009c-.042.058.031.1.163.1S-11.53,606.595-11.629,606.537ZM-190.878,603.2c.043-.1-.037-.176-.178-.179s-.258.074-.259.171a.18.18,0,0,0,.178.179A.307.307,0,0,0-190.878,603.2Zm-3.059-.228c0-.071-.167-.138-.373-.151-.373-.022-.518.207-.222.353C-194.334,603.274-193.939,603.14-193.938,602.972Zm178.68,4.022a.19.19,0,0,0-.24.009c-.042.058.031.1.163.1S-15.158,607.052-15.257,606.994Zm-177.186-3.443a.173.173,0,0,0-.186-.15.169.169,0,0,0-.189.143.173.173,0,0,0,.186.15A.169.169,0,0,0-192.444,603.552Zm-3.5-.135c0-.172-.056-.314-.129-.316s-.1.077-.057.175c.129.3-.341.186-.5-.124s-.437-.2-.441.2c0,.311.2.339.287.039.041-.149.088-.121.147.087a.348.348,0,0,0,.69-.065Zm169.413,3.646c0-.1-.055-.138-.124-.08a.347.347,0,0,0-.127.184c0,.043.055.079.124.08S-26.529,607.165-26.528,607.062Zm-21.3-.4c-.042-.1-.13-.136-.194-.081-.175.147-.143.253.076.258a.117.117,0,0,0,.118-.176Zm-1.288.034a.19.19,0,0,0-.24.009c-.042.058.031.1.163.1s.176-.047.077-.1Zm-.9-.076c0-.106-.138-.135-.343-.07-.492.156-.509.232-.054.241.218,0,.4-.073.4-.171Zm-143.252-2.874c.063.016.142-.082.175-.217.043-.173,0-.213-.155-.135a.947.947,0,0,1-.327.11c-.061,0-.078.124-.038.278s.107.2.151.108.129-.159.192-.143Zm-9.447-.223c.037-.152,0-.2-.088-.118s-.229.027-.328-.091c-.148-.178-.181-.148-.184.169,0,.3.06.373.268.334A.447.447,0,0,0-202.715,603.519Zm154.447,3.2c0-.038-.154-.071-.343-.073-.25,0-.3.04-.169.156.158.145.51.087.512-.083Zm-155.354-2.991c.224-.25.226-.265.015-.175a1.159,1.159,0,0,1-.345.1c-.063,0-.115.077-.116.173C-204.071,604.08-203.9,604.045-203.622,603.732Zm9.309.309c.007-.166.038-.2.071-.08.083.3.417.085.338-.216s-.913-.277-.917.039a.2.2,0,0,1-.19.216.182.182,0,0,1-.186-.174c0-.094-.083-.126-.187-.073-.411.213-.177.507.432.542C-194.449,604.325-194.323,604.275-194.313,604.041Zm-4.933.012a.928.928,0,0,1,.463-.084.626.626,0,0,0,.525-.317c.208-.385.061-.516-.292-.259a1.5,1.5,0,0,1-.727.185c-.553,0-.841.148-.885.445C-200.194,604.232-199.494,604.254-199.247,604.053Zm-1.171.048c.113-.154.075-.209-.158-.229a1.727,1.727,0,0,0-.431.007,6.062,6.062,0,0,1-.977.15c-.124,0-.192.089-.149.188.1.24,1.526.143,1.716-.116Zm-1.9.1c0-.1-.055-.138-.124-.08a.347.347,0,0,0-.127.184c0,.043.055.079.124.08s.126-.081.127-.184Zm-.522.2c.291-.252-.367-.326-.854-.1l-.439.207.562.018A1.423,1.423,0,0,0-202.844,604.4Zm-1.731.122a.161.161,0,0,0-.131-.178c-.073,0-.1.077-.057.175s.1.178.131.178S-204.576,604.615-204.575,604.519Zm5.933.29c-.042-.1-.1-.178-.131-.178s-.056.078-.057.175a.161.161,0,0,0,.131.178c.073,0,.1-.077.057-.175Zm-.847.4c.155-.055.283-.173.284-.262,0-.232-.663-.087-.723.158S-199.9,605.355-199.489,605.209Zm79.8,2.352a.314.314,0,0,0-.256-.181.176.176,0,0,0-.182.172c0,.1.114.178.256.181S-119.651,607.658-119.692,607.561Zm-3.936-.076a.161.161,0,0,0-.131-.178c-.073,0-.1.077-.057.175s.1.178.131.178.056-.078.057-.175Zm-19.867-.207a.184.184,0,0,0-.186-.179.18.18,0,0,0-.189.172.184.184,0,0,0,.186.179A.18.18,0,0,0-143.495,607.278Zm-4.31-.083a.377.377,0,0,0-.349-.165c-.255.011-.252.022.037.159l.349.165C-147.747,607.364-147.764,607.292-147.805,607.195Zm-1.374-.027c.046-.1-.08-.177-.3-.182s-.383.072-.384.168.136.178.3.182A.437.437,0,0,0-149.18,607.168Zm-5.809-.132c0-.108-.108-.158-.243-.111s-.265,0-.289-.111c-.032-.14-.191-.132-.555.03-.281.124-.569.174-.639.111a.128.128,0,0,0-.209.062c-.052.114.276.184.927.2s1.008-.049,1.009-.177Zm-42.542-.8a.118.118,0,0,0-.116-.178.185.185,0,0,0-.2.172c0,.1.051.177.116.178S-197.574,606.332-197.531,606.236Zm66.029,1.438c0-.1-.055-.138-.124-.08a.347.347,0,0,0-.127.184c0,.043.055.079.124.08S-131.5,607.777-131.5,607.674Zm-21.825-.6c-.057-.082-.24-.1-.407-.043-.28.1-.285.116-.063.232.29.151.615.02.47-.189Zm-44.643-.6c0-.244-.029-.252-.218-.054-.122.127-.245.253-.273.28s.069.051.218.054A.256.256,0,0,0-197.971,606.47Zm41.726,1.2c0-.038-.083-.116-.186-.174s-.187-.028-.188.065a.182.182,0,0,0,.186.174C-156.33,607.733-156.245,607.7-156.245,607.666Zm-9.873.054a.184.184,0,0,0-.186-.179.18.18,0,0,0-.189.172.184.184,0,0,0,.186.179A.18.18,0,0,0-166.117,607.72Zm-.5-.108c0-.043-.055-.079-.124-.08s-.126.081-.127.184.055.138.124.08A.346.346,0,0,0-166.616,607.612Zm-33.109-.569a.173.173,0,0,0-.186-.15.17.17,0,0,0-.189.143.173.173,0,0,0,.186.15A.169.169,0,0,0-199.726,607.043Zm-.625.017c0-.22-.13-.223-.375-.007-.153.135-.135.168.092.175.155,0,.282-.071.283-.168Zm-.939.158c.043-.1-.037-.176-.178-.179s-.258.074-.259.171a.18.18,0,0,0,.178.179A.307.307,0,0,0-201.289,607.218Zm-.564.127c0-.186-1.573-.121-1.713.07-.05.068.315.117.811.109S-201.854,607.435-201.853,607.345Zm-2.2.226c.213-.166.185-.192-.217-.2q-.646-.012-.394.35C-204.566,607.857-204.347,607.8-204.049,607.571Zm-.807.1c0-.1-.055-.138-.124-.08a.347.347,0,0,0-.127.184c0,.043.055.079.124.08S-204.856,607.768-204.855,607.666Zm42.935.925c.14-.41.128-.435-.213-.442-.309-.005-.359.057-.34.433C-162.445,609.154-162.114,609.159-161.92,608.591Zm-.726-.211c-.048-.376-.628-.577-1.785-.619a2.11,2.11,0,0,1-.924-.187.333.333,0,0,0-.343-.073c-.229.118-.218.571.014.6a1.722,1.722,0,0,1,.281.06,13.594,13.594,0,0,0,2.121.367c.287,0,.405.083.4.278s.036.224.136.086a.838.838,0,0,0,.1-.514Zm-34.4-.2c.223-.13.212-.148-.092-.165-.189-.01-.344.06-.345.157,0,.206.094.208.437.008Zm31.042,1.126c0-.1-.054-.177-.123-.178s-.126.077-.127.173.055.177.123.178S-166.009,609.4-166.008,609.3Zm-12.872.1c0-.1-.125-.177-.279-.178-.227,0-.246.031-.1.171.24.225.373.227.375.007Zm-.5.47c-.446-.107-.74-.228-.653-.268a.294.294,0,0,0,.158-.235c0-.245-.338-.2-.41.056-.041.146-.275.208-.671.179-.334-.024-.794-.055-1.021-.069s-.383-.091-.346-.173a5.065,5.065,0,0,0-2.332.012c-.126.072-.219.05-.218-.051,0-.17-.384-.247-1.409-.283a2.689,2.689,0,0,0-.983.209c-.459.2-.52.195-.629-.086s-.252-.3-1.329-.216a5.178,5.178,0,0,0-1.419.246c-.139.1-.228.077-.264-.069-.043-.174-.109-.175-.322,0-.148.119-.268.14-.267.046s-.153-.177-.342-.186a34.037,34.037,0,0,1-3.944-.328c-.307-.087-.488-.046-.625.142-.214.294-.521.359-.4.085.043-.1.019-.175-.053-.177s-.134.1-.136.217c0,.167-.026.169-.1.008-.1-.227-.36-.227-.628,0-.091.078-.2.093-.24.034s-.008-.106.072-.1.147-.132.149-.3c0-.232-.031-.252-.149-.091-.179.245-.4.276-.293.042a.245.245,0,0,0-.044-.267c-.065-.058-.156-.02-.2.084a.184.184,0,0,1-.259.091c-.1-.054-.175-.024-.175.067s-.1.115-.219.055c-.188-.1-.186-.075.016.153s.211.275.032.368a.193.193,0,0,1-.275-.068c-.04-.095-.117-.136-.17-.091a12.084,12.084,0,0,1-3.385-.136,12.09,12.09,0,0,0-2.955.121c-.274.14-.3.107-.3-.414,0-.469-.022-.507-.109-.217-.094.31-.115.316-.189.054-.063-.226-.184-.275-.511-.207-.646.135-.513-.063.261-.389.378-.159.657-.36.621-.447a.114.114,0,0,0-.184-.058c-.065.054-.117.024-.116-.068s.154-.218.34-.28c.238-.079.291-.155.177-.257-.215-.193.069-.954.306-.821a.2.2,0,0,0,.247-.02,1.173,1.173,0,0,1,.607-.125c.954-.023,1.088-.054,1.089-.25,0-.107-.083-.151-.186-.1s-.187,0-.186-.14c0-.269-.4-.469-.756-.378-.147.037-.24-.038-.238-.193,0-.139-.054-.255-.122-.256s-.126.116-.128.261c0,.343-.206.336-.3-.01-.051-.194-.164-.238-.407-.157-.279.093-.323.063-.255-.176.045-.159.042-.3-.008-.3s-.194-.045-.322-.081c-.148-.042-.256.057-.3.271-.037.188-.174.335-.31.333-.187,0-.224-.086-.161-.355.085-.358-.105-.5-.248-.18-.052.115-.169.1-.341-.029-.215-.167-.294-.145-.441.123-.174.317-.178.316-.135-.02.027-.213-.028-.353-.143-.363a4.813,4.813,0,0,1-.623-.14c-.24-.068-.7-.177-1.029-.242-.906-.18-.7-.362.378-.341a10.938,10.938,0,0,0,3.524-.364c.144-.1.261-.132.26-.061s.067.036.151-.079a.524.524,0,0,1,.377-.2c.151,0,.226-.128.229-.4,0-.319-.062-.4-.319-.388a.542.542,0,0,0-.438.261c-.084.182-.115.188-.114.022a.552.552,0,0,0-.279-.39c-.265-.156-.26-.165.079-.169.3,0,.333-.049.215-.256s-.093-.274.112-.361a.413.413,0,0,1,.356-.02c.055.049.182.018.283-.068.133-.115.073-.161-.223-.168-.645-.017-.467-.361.191-.371.327-.005.625,0,.662,0s.137-.139.221-.322c.163-.357.127-.359-2.253-.141-.4.036-.593-.014-.592-.152a.237.237,0,0,1,.221-.223l.688-.053c.258-.02.47-.1.47-.183s-.282-.125-.629-.1c-.524.041-.652-.009-.758-.3s-.23-.333-.616-.289c-.269.031-.489-.007-.488-.085,0-.225.564-.452,1.2-.486.447-.024.6-.108.651-.348.034-.174.115-.315.18-.314s.084.077.043.167c-.083.184.421.1.545-.091.043-.066-.021-.072-.142-.014-.162.078-.219.015-.216-.24,0-.19.066-.345.142-.343s.107-.117.069-.262-.01-.264.062-.262c.177,0,.07-.432-.114-.464-.08-.014-.23-.036-.333-.05-.263-.036-.232-.318.034-.312.556.014.907-.056.908-.18,0-.075-.315-.136-.7-.135a1.414,1.414,0,0,1-.842-.187c-.169-.228-.951-.3-.953-.091,0,.083-.1.147-.22.144-.171-.005-.181-.039-.047-.155s.145-.163,0-.241c-.1-.056.017-.2.3-.369.474-.278.547-.56.3-1.154-.094-.225-.081-.23.087-.034.133.156.225.172.281.049.046-.1.136-.182.2-.18.174,0,.138.486-.044.586-.1.056-.087.092.042.1.11.01.3-.138.429-.329s.167-.348.085-.35-.143-.1-.142-.224c0-.155.175-.2.58-.145s.552.016.494-.121c-.046-.108-.362-.2-.7-.209s-.617-.092-.616-.2-.043-.148-.1-.1-.177.016-.27-.067a.432.432,0,0,0-.443-.012c-.246.126-.267.093-.205-.327.038-.257.091-.368.118-.247.059.261.778.315.781.059a.181.181,0,0,1,.189-.172.18.18,0,0,0,.189-.172c0-.1.114-.174.252-.171s.251-.064.251-.148-.181-.159-.4-.166c-.672-.022-.736-.046-.648-.24a.182.182,0,0,1,.258-.088c.1.056.175-.011.176-.16s.059-.257.129-.256.071-.124-.016-.328c-.081-.188-.236-.3-.359-.255-.414.144-.378-.3.037-.455.315-.121.346-.164.131-.18s-.28-.127-.277-.461c0-.242.061-.438.129-.437s.124.081.123.178a.184.184,0,0,0,.186.179c.284.005.229-.52-.057-.548-.791-.077-1.029-.034-.942.169a.208.208,0,0,0,.288.068c.18-.085.188-.062.051.14-.126.185-.6.237-1.976.222-1.662-.019-2.128-.121-1.8-.393a1.309,1.309,0,0,1,.571-.118c.956-.032.548-.482-.481-.531-.316-.015-.574-.1-.573-.191s-.055-.116-.124-.058-.125-.008-.124-.147c0-.188.252-.28.972-.358.968-.1,1.538-.407,1.535-.815,0-.119-.086-.064-.189.122-.113.2-.186.247-.185.108,0-.181-.288-.215-1.373-.158-.89.047-1.375.009-1.374-.106,0-.1-.1-.133-.232-.078a.311.311,0,0,1-.375-.147c-.116-.2-.037-.264.441-.347a9.024,9.024,0,0,1,1.345-.092,23.018,23.018,0,0,0,4.707-.754c.2-.111.238-.181.109-.19a.382.382,0,0,1-.278-.293c-.066-.253-.091-.253-.272-.005-.23.315-.618.368-.481.066.065-.144-.011-.161-.273-.06a5.2,5.2,0,0,1-2.361-.032c-.549-.067-1.106-.125-1.238-.13s-.207-.051-.168-.105a8.2,8.2,0,0,1,1.709-.1,6.17,6.17,0,0,0,1.639-.112c0-.208.5-.289.5-.082,0,.112.089.047.2-.144.18-.323.2-.326.313-.043.088.225.216.279.491.207.259-.068.371-.028.37.13,0,.125.028.186.064.136.132-.18-.084-.647-.258-.557-.1.051-.177.007-.176-.1s-.092-.14-.207-.081c-.149.077-.18.044-.108-.115a.324.324,0,0,0-.066-.373.149.149,0,0,0-.26.054c-.051.112-.135.141-.188.065-.152-.22.158-.387.641-.346.244.021.414-.034.377-.121s-.261-.163-.5-.167-.429-.08-.428-.168.107-.118.236-.068a.246.246,0,0,0,.316-.089c.133-.294-.682-.523-1.423-.4a1.259,1.259,0,0,1-.831-.051c-.09-.1-.175-.1-.226.018s-.158.125-.31.006a7.414,7.414,0,0,0-2.25-.116c-1.846.055-2.044.032-2.273-.267-.138-.18-.283-.289-.322-.241s-.093-.012-.121-.133c-.053-.232.549-.626.721-.472a3.286,3.286,0,0,0,1.644.047.426.426,0,0,0,.146-.462c-.046-.259,0-.34.209-.336a1,1,0,0,0,.56-.255c.209-.187.54-.239,1.182-.184a2.656,2.656,0,0,0,1.03-.042c.263-.222-.174-.3-1.135-.209a2.125,2.125,0,0,1-1.225-.113c-.281-.2-.281-.2.07-.293a1.551,1.551,0,0,1,.695.013c.248.074.343.031.345-.154,0-.27.055-.3.753-.379.832-.1,1.5-.289,1.5-.428s.679-.415,1.223-.475c.275-.03.17-.325-.148-.417-.169-.049-.279-.021-.243.063s-.188.147-.5.141-.6.065-.638.157-.2.1-.41-.018a4.828,4.828,0,0,0-1.681-.126c-1.851.083-1.8-.2.1-.559.751-.14.967-.3.919-.683-.031-.246-.3-.3-1.9-.369a11.333,11.333,0,0,1-1.924-.175c-.159-.23.205-.274,2.085-.254,1.545.017,2.047-.033,2.159-.216s.076-.242-.214-.253c-.567-.023-2.284-.237-3.1-.388l-.748-.137.689-.217a9.621,9.621,0,0,1,2.006-.259c.724-.023,1.664-.073,2.089-.111s.8.006.846.1c.087.2.309.236.308.046a1.284,1.284,0,0,0-.108-.377c-.113-.259-.1-.258-4.028-.208-1.829.024-2.417-.083-2.187-.4.1-.139.8-.216,2.338-.259,1.142-.032,1.247-.07,1.54-.559.128-.213.271-.373.319-.355a4.492,4.492,0,0,0,.837-.1,10.426,10.426,0,0,1,1.189-.143c.3-.007.438-.094.44-.275,0-.145-.082-.265-.185-.266s-.3-.163-.441-.36c-.319-.45-.55-.529-.554-.187,0,.174-.127.261-.37.256-.2,0-.4.072-.447.169s-.157.114-.271.021a1.039,1.039,0,0,0-.71-.031c-.285.068-.789.158-1.12.2-.509.063-.595.031-.559-.212.029-.2.2-.3.541-.33.274-.024.521-.129.547-.232.032-.125.08-.114.142.032.07.164.189.177.458.051a2.163,2.163,0,0,1,1.014-.07c.534.083.651.051.653-.175a.6.6,0,0,0-.121-.387c-.068-.061-.126-.007-.128.119,0,.178-.028.174-.112-.017a.233.233,0,0,0-.309-.143c-.111.057-.2.023-.2-.076s-.067-.121-.156-.044a1.18,1.18,0,0,1-.595.145,2.536,2.536,0,0,0-.626.078c-.12.045-.187-.051-.185-.266a.358.358,0,0,1,.347-.395c.22-.037.344.023.344.168,0,.167.029.162.114-.021.113-.244,1.149-.287,1.4-.058.063.057.191.017.283-.088a1.585,1.585,0,0,1,.815-.242,2.278,2.278,0,0,0,.686-.115,5.542,5.542,0,0,0,.121-.766c.074-.64.067-.666-.083-.3l-.164.406-.2-.413-.2-.413.023.439c.017.336-.044.451-.258.49s-.263-.012-.195-.253.04-.28-.155-.175a2.633,2.633,0,0,1-1.055.293,20.521,20.521,0,0,0-2.317.337.927.927,0,0,1-.6-.139c-.343-.207-.343-.209-.075-.436.148-.125.231-.143.185-.04s-.025.188.048.19.133-.107.135-.242c0-.233.569-.446,1.225-.46.191,0,.274-.1.253-.3-.041-.382.509-.376,1.335.015.515.244.667.255.93.07.208-.146.363-.163.459-.047a.333.333,0,0,0,.556-.2c0-.092.053-.121.117-.064s.154.018.2-.086a.192.192,0,0,1,.275-.082.314.314,0,0,0,.363-.09c.1-.108.173-.138.172-.066s.093.024.209-.106c.143-.161.224-.175.255-.042.078.339.662.076.666-.3,0-.206-.052-.294-.137-.223-.128.108-.352-.2-.354-.491,0-.066.238-.1.53-.078.464.037.536-.007.574-.352.044-.4-.255-.576-.407-.24-.043.094-.215.056-.411-.092-.294-.222-.362-.221-.529.008s-.164.287-.021.416a.324.324,0,0,1,.082.35c-.049.108-.147.144-.218.081s-.179-.008-.241.124c-.077.166-.11.068-.108-.319,0-.414.072-.588.265-.671s.245-.207.19-.535c-.052-.309-.02-.423.118-.42.1,0,.191-.123.193-.279,0-.274-.215-.273-.769,0-.292.145-.513-.19-.411-.622.074-.312.117-.343.208-.15s.153.17.315-.146c.111-.215.278-.39.373-.388a.167.167,0,0,0,.174-.161c0-.09-.153-.124-.343-.075-.692.178-1.091.1-1.336-.251-.155-.224-.442-.286-1.321-.286s-1.139-.057-1.19-.254a.807.807,0,0,1,.739-1.02c.891-.128,1.034-.208,1.08-.607.024-.211,0-.366-.059-.346-.177.064-.663-.235-.661-.407,0-.09.128-.169.283-.176a8.658,8.658,0,0,0,3.1-.487c0-.11.154-.137.384-.067a.891.891,0,0,0,.752-.145c.277-.2.431-.212.617-.068s.247.137.25-.075c0-.147.2-.379.442-.516s.441-.359.442-.493c0-.395-1.647-.338-1.975.068-.165.2-.282.248-.334.125-.044-.1-.021-.188.052-.186s.133-.077.134-.173-.128-.178-.286-.181a.583.583,0,0,1-.423-.2c-.1-.143-.254-.139-.569.015-.591.288-1.046.092-1.144-.493a1.085,1.085,0,0,1,.055-.651c.225-.308.155-.443-.3-.572-.24-.068-.435-.221-.434-.34,0-.155-.393-.236-1.4-.289-1.877-.1-1.842-.091-1.84-.333,0-.116-.152-.294-.34-.394l-.342-.183.319-.008a.647.647,0,0,0,.453-.191,2.686,2.686,0,0,1,1.183-.245c.577-.034,1.3-.1,1.612-.141a7.454,7.454,0,0,1,.807-.076.636.636,0,0,0,.421-.2.8.8,0,0,1,.362-.235.679.679,0,0,0,.345-.333.8.8,0,0,1,.586-.334c.557-.047.543-.035.375-.327-.117-.2-.092-.263.134-.3.358-.067.431-.37.177-.737-.155-.225-.46-.293-1.386-.311-.891-.017-1.233-.09-1.373-.291s-.368-.25-.926-.193c-.455.046-.74.007-.739-.1s.044-.182.1-.189.235-.037.407-.067.637-.1,1.032-.154.72-.173.721-.263-.041-.168-.092-.173-.4-.06-.78-.12-.756-.117-.842-.125c-.322-.032-.135-.239.407-.453a5.2,5.2,0,0,1,1.332-.265c.755-.043,1.259-.308.707-.371-.154-.018-.532-.091-.84-.164l-.561-.132.5-.193c.292-.112.5-.3.5-.451s-.082-.229-.186-.193a2.054,2.054,0,0,1-1.109-.1c-.122-.176.13-.285,1.133-.491.575-.118,1.06-.222,1.077-.232a.513.513,0,0,1,.156-.014c.069,0,.126-.1.127-.235,0-.177-.34-.275-1.34-.387a12.37,12.37,0,0,1-1.934-.3c-.051-.013-.092-.136-.091-.273a.389.389,0,0,0-.153-.328c-.085-.044.28-.078.812-.076,1.045,0,1.274-.089,1.174-.472-.06-.228.3-.325,1.021-.273.263.019.178-.214-.241-.662a1.316,1.316,0,0,0-1.078-.449c-.385-.012-.7-.108-.724-.22-.052-.227.287-.383,1.092-.5.31-.045.732-.12.939-.166a2.925,2.925,0,0,1,.664-.066,1.746,1.746,0,0,0,.784-.307c.373-.245.495-.268.493-.093,0,.245.205.262.468.037a.222.222,0,0,1,.277-.027c.066.059.193-.052.282-.248a.592.592,0,0,1,.476-.355.906.906,0,0,0,.559-.253.8.8,0,0,1,.475-.249,1.042,1.042,0,0,0,.541-.273c.171-.153.31-.225.31-.16s.124,0,.276-.147c.245-.235.31-.235.556,0,.162.154.309.2.353.1a.178.178,0,0,1,.257-.062c.1.056.183.015.184-.092a.226.226,0,0,1,.252-.19c.137,0,.251-.074.252-.171,0-.174-.157-.206-1.122-.224-1.126-.022-1.242,0-1.182.23a.191.191,0,0,1-.194.249c-.174.015-.252-.085-.25-.319,0-.355-.08-.4-.653-.359-.265.019-.343-.053-.341-.316s.116-.361.522-.429a.952.952,0,0,0,.614-.3c.052-.115.157-.154.233-.086s.138.052.139-.036.24-.13.532-.094l1.14.142c.5.063.621.021.669-.224a.27.27,0,0,1,.534.04c0,.221.468.2.523-.021.061-.244.854-.256.957-.014.126.295.793.051.865-.316.087-.444.285-.408.281.052,0,.314.027.338.188.155s.236-.16.436.1c.236.308.245.308.25-.015,0-.28.024-.292.124-.069q.119.266.123.046c0-.121.064-.218.136-.217s.106.061.073.133c-.125.277.833.235,1.061-.046.188-.233.265-.244.418-.06.1.124.188.164.189.089s.107,0,.236.17c.16.209.262.246.322.114a.239.239,0,0,1,.326-.081c.166.077.239.027.241-.164,0-.306.32-.37.439-.088.042.1.126.139.185.089s.143-.01.186.089.208.137.369.084.327-.014.371.088c.051.119.185.13.379.031.219-.112.34-.084.449.105s.2.205.3.086c.084-.1.183-.129.221-.075a1.023,1.023,0,0,0,.455.175c.3.059.391.008.4-.222.007-.164.036-.219.064-.122.078.27,2.725.27,2.963,0,.131-.148.22-.159.273-.034a.438.438,0,0,0,.375.192c.212,0,.309-.106.34-.389.043-.386.074-.393,1.444-.317a6.031,6.031,0,0,0,2.063-.151,2.993,2.993,0,0,1,.969-.191.718.718,0,0,0,.557-.282c.138-.176.311-.312.383-.3s.061.055-.025.1a.2.2,0,0,0-.089.248c.1.241.429.2.432-.051,0-.134.2-.226.5-.236.275-.009.5.053.5.139,0,.179,1.061.083,1.289-.116a.856.856,0,0,1,.4-.16c.138-.015.363-.051.5-.079.195-.04.243.036.217.343-.025.291.032.4.215.4.137,0,.248.084.247.181,0,.222.6.239,1.074.03a5.057,5.057,0,0,1,1.921-.364.754.754,0,0,1,.823.491c.26.472.271.476.443.143a.515.515,0,0,1,1,.152c.078.419.083.421.1.046.009-.22.1-.394.2-.392s.234-.126.3-.283c.108-.263.145-.258.439.052a1.235,1.235,0,0,1,.326.691c0,.352,0,.352.147,0,.213-.519.236-.535.36-.252.1.219.114.211.119-.047,0-.2.1-.306.292-.3a.573.573,0,0,0,.427-.185.331.331,0,0,1,.432-.045.87.87,0,0,0,.44.109c.081-.02.171.144.2.365l.052.4.1-.408c.075-.307.125-.35.2-.172s.1.165.108-.071.107-.306.38-.3c.206,0,.374.084.373.179,0,.11.117.111.33,0,.182-.093.356-.135.385-.092s.219.015.421-.063c.24-.092.366-.076.365.045s.082.09.2-.046c.171-.194.226-.186.347.055s.184.246.356.074c.193-.193.2-.246.02-.608-.2-.41-.155-.671.076-.463a.7.7,0,0,1,.129.448c0,.432.293.554,1.3.535a2.168,2.168,0,0,1,.906.1c.043.062.159.022.258-.09.114-.13.209-.14.262-.029.127.269.893.307.9.044,0-.242.92-.386,1.149-.18a8.353,8.353,0,0,0,3.474.212,3.759,3.759,0,0,1,1.812.029,4.607,4.607,0,0,0,1.218.007c.79-.084.845-.118.849-.517,0-.312.063-.41.222-.363s.206.2.178.5l-.04.435,1.224-.032c.673-.018,2.208-.015,3.41.006a7.675,7.675,0,0,0,2.344-.14c.11-.125.157-.12.156.017,0,.2.427.189.579-.019.048-.065.165-.024.262.092.12.144.2.152.261.028s.609-.149,1.522-.091c1.9.121,2.29.116,2.371-.03.037-.067.236-.119.442-.115a.576.576,0,0,0,.468-.167c.052-.1.093-.035.092.142,0,.228.051.276.186.173a2.171,2.171,0,0,1,1.071.046c.73.156.9.145,1-.062.081-.174.117-.184.116-.032,0,.3.226.282.453-.029a.919.919,0,0,1,.757-.226c.356.017.612-.062.678-.208.059-.129.14-.187.181-.128s-.021.237-.137.4-.19.305-.165.325l.316.255c.169.137.286.153.313.044s.311-.177.639-.179c.544-.005.59-.038.527-.38s-.052-.344.1-.081a.781.781,0,0,0,.472.348,1.59,1.59,0,0,0,1.278-.407c.059-.123.093-.082.093.112,0,.354.2.417.293.094.051-.172.067-.171.073.005s.1.139.349-.081c.188-.168.3-.206.243-.086a.245.245,0,0,0,.108.335.216.216,0,0,0,.306-.1c.073-.162.112-.165.146-.012s.436.206,1.294.2c.686,0,1.514.013,1.84.034.472.031.594-.02.6-.247,0-.257.022-.258.192-.011a.472.472,0,0,0,.561.177c.245-.064.37-.026.369.113s.093.169.23.111a18.707,18.707,0,0,1,2.448-.125,14,14,0,0,0,2.291-.128c.041-.056.009-.1-.071-.1s-.145-.121-.143-.266a.253.253,0,0,1,.252-.259,1.094,1.094,0,0,0,.342-.037c.051-.023.11.1.131.266.028.218-.018.276-.156.2-.107-.06-.2-.022-.2.085a.231.231,0,0,0,.248.2.234.234,0,0,1,.248.208c0,.119.1.08.237-.093a.836.836,0,0,0,.175-.662c-.046-.261-.014-.342.11-.282a.792.792,0,0,1,.209.555c.031.416.074.458.371.357a1.69,1.69,0,0,1,.586-.087c.238.026.239.015.026-.214-.142-.153-.175-.282-.09-.354a.7.7,0,0,0,.066-.52c-.057-.336-.01-.421.266-.49.44-.109,1.058.242,1.054.6,0,.233.123.276.716.244a22.048,22.048,0,0,1,4.731.06.179.179,0,0,0,.254.075c.1-.052.152-.027.115.055s.04.289.171.46c.229.3.241.294.324-.146s.436-.653.432-.265c0,.1-.058.136-.126.075s-.125.022-.127.184c0,.242.031.257.185.082a.471.471,0,0,1,.514-.091.339.339,0,0,0,.491-.186.689.689,0,0,1,.612-.314.911.911,0,0,0,.536-.128c.049-.067.281-.067.516,0,.3.085.461.049.539-.119.061-.132.112-.156.112-.052,0,.122.3.175.844.149.464-.022,1.673-.032,2.687-.021a5.328,5.328,0,0,0,1.845-.143c0-.178.506.187.65.469.052.1.092.053.095-.113,0-.2.079-.262.252-.195.136.053.216.166.178.251s.2.166.531.18.769.05.975.079a.947.947,0,0,0,.477-.022,4.2,4.2,0,0,1,1.062-.021c2.984.167,2.958.169,2.963-.193a.491.491,0,0,1,.161-.407c.1-.047.063-.181-.122-.4-.449-.531-.129-.752.5-.343a3.281,3.281,0,0,0,1.058.426,3.1,3.1,0,0,1,.722.189,9.633,9.633,0,0,0,1.968.441,9.8,9.8,0,0,1,1.4.288,4.6,4.6,0,0,0,1.75-.021c0-.268.618-.109.738.19s.125.284.132-.033c.005-.263.041-.294.152-.133s.19.158.312.02.167-.135.165.013.066.154.238.028.334-.1.577.079c.395.3.878.126.856-.3-.008-.156.035-.283.1-.281s.11.111.109.244a.848.848,0,0,0,.183.464c.128.154.186.161.187.025,0-.108.156-.189.345-.18l.343.018-.3.163c-.372.2-.262.412.144.277a.918.918,0,0,0,.446-.54c.17-.507.4-.582.4-.128,0,.22.1.315.372.333.206.014.375-.046.376-.135s.311-.131.688-.094c.438.042.686.144.685.281,0,.244.382.106.531-.19.063-.126.094-.115.093.033,0,.121.14.222.312.226s.313-.06.314-.14c0-.171.456-.142.58.037s.642.157.732-.041a2.207,2.207,0,0,1,1.134-.154c.918.018,1.056-.02,1.066-.287s.023-.264.1.034c.062.231.121.276.184.138a.4.4,0,0,1,.4-.161c.258.035.3.111.237.441-.086.454.22.578.394.16.087-.21.174-.21.592,0,.269.136.536.209.593.161a3.877,3.877,0,0,1,1.009-.133,9.207,9.207,0,0,0,1.493-.2c.372-.1.631-.091.706.018a.351.351,0,0,0,.413.039,3.274,3.274,0,0,1,1.107-.077c.446.03,1.234.049,1.749.043l1.717-.018c.682-.005.771-.045.713-.315-.049-.228,0-.307.2-.3s.249.081.187.34a.548.548,0,0,0,.05.451c.071.064.131-.027.134-.2,0-.2.037-.244.1-.112a.45.45,0,0,0,.4.2,1.163,1.163,0,0,1,.55.144c.169.107.212.091.149-.057-.052-.123-.009-.215.107-.226s.265-.032.351-.049a.391.391,0,0,1,.28.07c.162.132.686.158.687.034a9.934,9.934,0,0,1,3.6.251c.354.218.425.218.524,0s.124-.22.185.012c.1.391.684.428.7.045.008-.185.037-.218.074-.083s.113.178.176.125.114-.013.113.091c0,.2.876.156,1.283-.06a.349.349,0,0,1,.405.1c.108.13.184.147.185.041s.17-.145.376-.1l.769.158a1.232,1.232,0,0,0,.688-.07c.161-.083.292-.09.292-.016,0,.207.483.219.575.014.055-.121.114-.108.176.037s.159.163.265.072a5.4,5.4,0,0,1,2.733.05c0,.129.033.123.1-.015a.465.465,0,0,1,.468-.156,2.014,2.014,0,0,0,.8-.1c.316-.111.451-.088.528.088.059.136.105.154.107.042s.158-.2.348-.207c.712-.026.973-.089,1.1-.265a1.443,1.443,0,0,1,.907-.107c.748.072.77.088.711.515-.051.365-.02.427.178.358a.219.219,0,0,1,.3.119c.039.139.06.134.069-.017s.22-.216.605-.211c.429.006.542-.039.408-.165-.112-.1-.126-.174-.037-.174a.271.271,0,0,1,.218.163c.038.09.378.141.756.114s.686.025.685.115.111.167.248.169.251-.074.252-.171.2-.172.439-.167.437.078.436.164c0,.216.611.373.7.179.039-.087.177-.109.305-.049a.543.543,0,0,0,.489-.076c.2-.143.326-.119.565.108.28.266.317.268.388.018.052-.183.2-.254.43-.211.256.047.335,0,.289-.176-.105-.4,1.143-.342,1.427.069.215.31.4.327.41.036,0-.136.038-.152.094-.042a1.05,1.05,0,0,0,.683.212c.471.027.595-.025.6-.252.006-.255.025-.252.17.024a.741.741,0,0,0,1.082.146c.134-.1.243-.111.242-.03,0,.134,1.38.173,4.1.116.891-.019,1.063-.073,1.234-.391l.2-.369-.086.394c-.051.235-.032.395.047.4s.139-.136.145-.3c.01-.268.022-.271.094-.025.084.291.519.336.927.1.148-.087.22-.051.22.109,0,.184.027.179.12-.022s.313-.243.923-.187c.441.04.836,0,.877-.09s.371-.129.733-.086.968.08,1.346.081c5.2.028,6.293.057,6.414.169.092.085.066.131-.076.13-.12,0-.219.063-.22.143s.28.168.623.2c.5.042.625,0,.627-.227s.048-.218.269.08.422.357,1.028.35a2.524,2.524,0,0,0,1.1-.236c.263-.177.348-.179.39-.008s.11.173.322,0,.268-.173.268.005c0,.161.025.167.094.02.15-.321.231-.335.447-.076.173.208.214.2.283-.039.1-.361.679-.367.675-.006,0,.386.207.326.287-.083.075-.382.374-.315.7.157.132.189.338.226.811.143,1.161-.2,1.309-.195,1.377.067.051.2.212.232.707.157.407-.062.7-.023.81.107.094.112.171.132.172.044,0-.193.712-.277.9-.106a1.634,1.634,0,0,0,.619.191c.349.051.506,0,.56-.2.067-.236.093-.234.222.022a.66.66,0,0,0,.576.3c.64.01.8-.07.891-.456.079-.326.085-.323.093.046.01.461.2.523.361.121.1-.233.156-.242.363-.055s.324.18.644-.012c.218-.13.4-.328.4-.439a.382.382,0,0,1,.192-.3c.147-.076.172-.005.112.316a.719.719,0,0,0,.056.534c.079.071.135-.024.137-.231a.74.74,0,0,1,.148-.473c.1-.086.118.016.057.342-.076.4-.053.456.183.411a.755.755,0,0,0,.434-.358c.11-.205.248-.266.422-.185.155.072.259.043.26-.073,0-.14.075-.137.263.009s.3.151.4.014a.479.479,0,0,1,.394-.164c.206.02.214.04.04.1s-.186.123-.066.308c.192.3.465.16.468-.234,0-.167.086-.3.188-.3.131,0,.162.122.107.412-.107.566.051.516.22-.069l.139-.481.181.386c.18.383.183.384.429.046.227-.311.271-.316.519-.065.31.315,1.474.371,2.966.144,1.828-.278,2.07-.287,2.527-.086.36.158.507.153.662-.023s.236-.172.333-.032.2.137.373-.009c.189-.16.262-.151.343.038.062.145.356.255.742.278s.662.125.7.27c.034.128.128.176.21.107a.972.972,0,0,1,.5-.133c.263-.005.364.091.416.4s.129.385.346.307c.249-.089.245-.074-.037.152s-.289.267-.1.376a.368.368,0,0,0,.572-.388c-.02-.182.044-.309.153-.307a.2.2,0,0,1,.185.209.686.686,0,0,0,.09.339c.051.073.094.019.095-.121a.32.32,0,0,1,.311-.284c.227-.022.289.039.234.23-.041.143-.016.261.054.262s.15-.087.177-.2c.034-.138.1-.123.229.048.331.455,1.508.253,1.973-.34a1.335,1.335,0,0,1,.584-.435c.246-.058.285-.01.228.281-.048.244-.007.352.133.355a.186.186,0,0,1,.2.159,3.287,3.287,0,0,0,1.755-.038c.058-.049.156.041.217.2.093.241.123.247.183.036.056-.2.213-.224.7-.126.362.072.65.056.673-.038s.312-.107.7-.024c.483.1.64.2.59.38s.029.226.3.186c.205-.03.4.021.444.113a.172.172,0,0,0,.243.078.179.179,0,0,1,.249.092c.086.2.825.169.937-.043a.991.991,0,0,1,.595-.168c.287-.018.523-.081.524-.141a2.626,2.626,0,0,1,1.412-.363c.175.157-.058.431-.33.388-.294-.046-.512.043-1.274.519a3.918,3.918,0,0,1-1.531.537.1.1,0,0,0-.095.147c.176.412-.29.8-1.1.918a.369.369,0,0,0-.178.142.8.8,0,0,1-.516.122c-.382-.007-.409.024-.291.346.154.419.314.442.78.112.251-.178.346-.188.346-.036,0,.127.047.108.119-.048s.274-.236.562-.2c.244.034.444-.015.445-.11,0-.24.72-.552.959-.417.152.086.115.159-.163.32l-.36.209.311.189.311.189-.407.116c-.294.084-.408.213-.411.467s-.045.3-.158.172a.354.354,0,0,0-.406-.053.62.62,0,0,1-.51-.016.422.422,0,0,0-.434.005c-.19.16-.09.25.44.4.137.038.237.152.222.253s.111.291.28.422c.365.284.331.56-.088.716-.289.108-.286.115.07.158.225.027.287.076.155.121a.323.323,0,0,0-.221.259c0,.1-.114.14-.251.087s-.25-.034-.25.044a.35.35,0,0,1-.2.241c-.121.063-.163.029-.109-.088.118-.26-.765-.1-1.015.182-.3.339-.131.388.366.108.393-.222.453-.222.451,0,0,.154.12.257.31.261.172,0,.312.089.311.19,0,.119.071.129.2.027.275-.209.669-.044.587.246-.05.176.061.211.476.149.529-.079.535-.075.257.206a.973.973,0,0,0-.286.518c0,.135-.218.275-.522.338-.681.14-.794.251-.535.524.187.2.126.262-.5.524-1,.419-1.16.745-.327.649.608-.07.635-.056.551.3-.105.444-.023.459.681.125.663-.315.763-.314.673,0a2.562,2.562,0,0,1-1.407.952.8.8,0,0,0-.472.256c-.229.243-.223.249.1.094.442-.212.469.106.032.376-.171.105-.278.267-.239.358s-.062.143-.224.114a1.867,1.867,0,0,0-.71.075c-.384.118-.4.146-.191.374.145.159.167.247.061.248-.09,0-.137.065-.1.142a1.54,1.54,0,0,0,.85.109c.435-.017.987-.036,1.228-.043a.986.986,0,0,0,.6-.194c.244-.274.319-.034.088.281-.184.252-.151.273.387.248.65-.031.907.327.364.508a.454.454,0,0,0-.325.352.238.238,0,0,1-.221.246c-.208,0-.208.01,0,.185.165.139.187.261.093.5a.612.612,0,0,0-.037.444c.048.07-.015.23-.14.355-.144.144-.18.271-.1.346a.7.7,0,0,1,.128.447c0,.323-.349.584-.787.593-.331.006-.326.346.006.418.183.04.265.15.223.3s.061.279.3.358c.467.154.371.411-.113.3-.251-.057-.386,0-.441.2-.043.153-.025.279.042.281s.12.086.119.188-.058.136-.126.075-.125-.03-.126.069c0,.274.463.59.558.379.1-.229.44-.219.437.014a.357.357,0,0,1-.221.274c-.555.235-1.162.639-1.163.775,0,.082-.111.147-.244.144a.358.358,0,0,0-.317.16c-.077.17.336.12.559-.068.069-.058.125-.027.124.07a.461.461,0,0,1-.149.3c-.157.132.333.508.6.456.078-.015.174.093.212.24.044.17.232.271.511.277.309.006.44.088.439.272,0,.145-.058.263-.126.261s-.112.163-.1.366c.022.309-.053.377-.464.425a1.1,1.1,0,0,0-.61.22.35.35,0,0,0,.28.554c.431.008.391.354-.085.737l-.471.379.407.157c.281.108.385.235.335.41-.072.253.4.354,1.326.286.189-.014.343.026.343.088,0,.229-.36.595-.689.7a.658.658,0,0,0-.4.339c-.035.125-.28.274-.544.331a1.589,1.589,0,0,0-.712.359c-.213.233-.188.251.3.208.343-.03.485.013.4.123-.2.269-.146.45.128.455a.383.383,0,0,1,.327.285.741.741,0,0,0,.31.408c.169.091-.045.219-.74.442a4.534,4.534,0,0,0-1.312.627,1.205,1.205,0,0,1-.466.311.94.94,0,0,0-.775.716c0,.178-.084.322-.183.32-.273-.005-.375.347-.181.627.182.263.711.445,1.537.529a3.366,3.366,0,0,1,.624.106,3.79,3.79,0,0,0,.686.106c.309.028.66.063.78.079.377.049.265.843-.168,1.191a.99.99,0,0,0-.38.53c0,.124-.078.224-.17.222-.142,0-.253.209-.568,1.087-.026.072.049.133.166.135.18,0,.187.047.047.278s-.136.3.012.437.141.163-.035.162a.972.972,0,0,0-.882.757c-.034.309-.178.4-.855.556-.448.1-.842.2-.877.224a.24.24,0,0,1-.156.016c-.051-.012-.1.076-.1.2,0,.162-.032.156-.109-.021-.064-.146-.136-.173-.183-.067-.146.321.294.625.95.655.4.018.7.127.787.281a.263.263,0,0,0,.353.138c.143-.074.2-.038.164.106a.476.476,0,0,1-.388.268c-.184.027-.335.123-.336.213s-.044.146-.095.124c-.162-.069-.909.347-.911.507a2.353,2.353,0,0,1-1.088.336,3.714,3.714,0,0,0-1.194.331c-.168.23.02.736.275.741a.35.35,0,0,1,.3.171,1.164,1.164,0,0,0,.629.3c.473.109.558.19.554.529,0,.426-.217.61-.7.6a.425.425,0,0,0-.374.169.35.35,0,0,1-.308.17c-.239,0-.486.559-.288.656s.007.9-.216.974c-.113.04-.026.085.193.1l.4.028-.181.588-.181.588.495-.049c.517-.052.694.255.239.413-.22.076-.2.131.183.426a1.682,1.682,0,0,0,.8.346c.2,0,.4.079.436.168s-.037.12-.167.069a.25.25,0,0,0-.321.1c-.047.1-.04.2.015.2.821.118,1.877.509,1.432.531-.09,0-.128.092-.084.194.054.128-.216.143-.86.048-1.563-.23-1.839.277-.3.554,1.009.182.849.512-.27.555-.527.02-.9.111-.9.221s.078.146.175.1.272.06.388.246a1.965,1.965,0,0,0,1.486.762c.305.005.433.1.476.343.049.282-.01.334-.375.327-.453-.009-.92.241-.922.493,0,.081.278.2.62.275.431.089.66.233.748.472.133.362.086.4-.756.572-.311.064-.311.066-.035.2.367.179.212.5-.172.361-.176-.066-.3-.034-.3.078s-.058.139-.126.078-.125-.022-.126.086-.123.17-.271.137a.264.264,0,0,0-.324.158c-.055.218.046.236,1.776.323.543.027.621.077.6.38a.728.728,0,0,0,.12.491c.247.241-.661,1.171-1.133,1.162-.378-.007-.654.244-.505.46a2.209,2.209,0,0,0,.774.181c.819.1.945.177.844.529-.052.182.043.292.325.377.419.126.409.065.2,1.247-.064.361-.118.377-1.53.465a4.529,4.529,0,0,0-1.492.244c-.076.1-.077.164,0,.174s.508.062.983.118c.853.1,1.567.466,1.563.8,0,.094.223.176.5.181.544.01.666.268.214.452a1.436,1.436,0,0,0-.472.342.688.688,0,0,1-.315.237,2.87,2.87,0,0,0-1.49.429.974.974,0,0,1-.4.3c-.231.078-.231.083.009.107a1.841,1.841,0,0,0,.657-.13c.338-.129.406-.108.4.125,0,.154-.037.232-.078.172s-.295.08-.563.311a1.7,1.7,0,0,1-.717.416c-.126,0-.4.242-.6.543s-.305.5-.224.432a.142.142,0,0,1,.226.067c.046.108.375.153.808.11.588-.058.744-.018.8.208.04.154.144.242.231.2a1.309,1.309,0,0,1,.654.062l.5.144-.441.012a1.288,1.288,0,0,0-.741.3l-.3.287.3.161c.3.161.3.163-.206.751-.538.629-.408.6-2.71.649a4.166,4.166,0,0,0-1.22.14c-.076.064-.137.03-.136-.075,0-.132-.4-.17-1.28-.122-.7.038-1.886.077-2.625.087a4.066,4.066,0,0,0-1.345.132c0,.063-.115.071-.254.017a.46.46,0,0,0-.473.174c-.122.151-.287.212-.371.137a9.69,9.69,0,0,0-3.084,0c-.485.054-1.135.123-1.445.153a9.171,9.171,0,0,0-.97.15c-.224.052-.406.023-.406-.065,0-.271-.408-.406-.515-.169-.078.172-.816.214-3.162.182a13.358,13.358,0,0,0-3.224.137,2.11,2.11,0,0,1-.756.342c-.584.16-.592.156-.517-.244s.044-.41-.715-.475a5.347,5.347,0,0,0-1.544.135c-.413.112-.971.24-1.238.285a9.243,9.243,0,0,0-1.253.359,4.586,4.586,0,0,1-1.735.216c-1.979-.124-2.679-.148-3.654-.123-.55.014-1.248.023-1.552.02a1.64,1.64,0,0,0-.775.157c-.226.164-.86-.121-.857-.386,0-.07-.139-.168-.31-.217s-.312-.022-.313.061a.142.142,0,0,1-.134.149c-.073,0-.1-.081-.053-.177s.016-.175-.061-.177-.1-.09-.052-.2.269-.148.557-.078a1.3,1.3,0,0,0,.94-.151c.437-.247.464-.245.386.03-.068.239-.03.276.2.194a2.17,2.17,0,0,1,.628-.1c.189,0,.344-.085.346-.195,0-.131-.17-.17-.5-.114s-.472.022-.42-.093c.092-.2-.74-.125-1.131.1-.184.108-.216.087-.136-.09s.034-.206-.2-.124a3.657,3.657,0,0,1-.965.1c-.453-.007-.637.052-.58.186s-.009.154-.212.061a.68.68,0,0,1-.329-.262c-.044-.163-1.1.051-1.8.367-1.1.5-1.279.5-1.531.009a.688.688,0,0,0-.627-.455.74.74,0,0,1-.517-.184c-.079-.114-.268-.12-.535-.018a.6.6,0,0,1-.667-.058c-.2-.17-.266-.17-.312,0a.28.28,0,0,1-.243.215.115.115,0,0,1-.105-.178c.043-.1-.015-.176-.129-.178-.134,0-.183.091-.139.261.059.224-.108.261-1.068.243-.89-.017-1.223.048-1.53.3-.369.3-.626.329-1.86.193-.411-.045-.46-.384-.059-.4.186-.008.1-.1-.253-.26-.529-.245-.9-.205-.9.1,0,.086-.1.149-.22.139s-.155-.052-.061-.1c.343-.187.13-.408-.4-.419-.365-.007-.564.066-.566.209s-.034.157-.094.029c-.135-.285-.506-.445-.593-.255-.042.092.054.177.213.19.183.015.109.079-.2.176s-.536.089-.618-.03-.038-.18.149-.177c.151,0,.276-.069.276-.159,0-.183-.291-.208-1.1-.094-.447.063-.515.119-.4.327s.017.236-.7.156a1.866,1.866,0,0,0-1.108.107c-.36.273-.975.265-.9-.012a.344.344,0,0,0-.058-.319c-.065-.058-.119-.025-.12.074s-.086.133-.188.076c-.123-.069-.191.005-.2.221-.011.3-.02.3-.116-.027-.057-.194-.109-.264-.115-.154s-.2.323-.436.474c-.368.237-.874.254-3.748.128-1.827-.081-3.464-.2-3.637-.264a.47.47,0,0,0-.513.107c-.155.176-.217.178-.291.005s-.125-.165-.238.02c-.1.16-.341.214-.74.164a20.022,20.022,0,0,0-2.532-.066c-.1.009-.593,0-1.089-.029-.745-.037-.889-.091-.827-.307.041-.144.026-.267-.032-.273-1.735-.172-2.209-.222-2.746-.286a2.182,2.182,0,0,1-.779-.2.2.2,0,0,0-.242-.035,8.024,8.024,0,0,1-2.364.009c-.292-.047-.531-.017-.532.066s.041.158.092.166a2.97,2.97,0,0,1,.343.1,3.391,3.391,0,0,0,.834.088c.322,0,.615.069.651.154.11.259-1.775.267-4.674.018-.584-.05-1.714-.134-2.513-.187A6.671,6.671,0,0,1-54,606.818c-.077-.069-.14-.041-.141.061s-.118.184-.259.181-.222-.083-.178-.179a.118.118,0,0,0-.116-.178c-.107,0-.2.057-.2.131a6.487,6.487,0,0,1-1.844.126c-2.13-.01-6.758.086-8.218.17a22.062,22.062,0,0,1-2.375.048c-.55-.006-1.281.007-1.625.03a2.116,2.116,0,0,1-.933-.128c-.169-.094-.325-.1-.345-.022s-.387.094-.815.028a4.282,4.282,0,0,0-1.217-.026,7.949,7.949,0,0,1-1.406.066,2.562,2.562,0,0,0-.969.066,3.274,3.274,0,0,1-1.094.091c-3.5-.01-8.074.086-8.644.181-.474.079-.689.048-.757-.11s-.162-.172-.33-.05a14,14,0,0,1-3.7.167c-.326-.006-.622.056-.659.138s-.221.1-.408.051a12.4,12.4,0,0,0-4.123.124.1.1,0,0,1-.155-.1c0-.108-.083-.12-.218-.03a1.43,1.43,0,0,1-.72.108,1.117,1.117,0,0,0-.626.084,13.257,13.257,0,0,1-2.438.09c-1.271-.018-2.613-.005-2.981.028a3.74,3.74,0,0,1-1.233-.12c-.361-.116-.592-.12-.643-.013a5.933,5.933,0,0,1-1.892.167c-1,0-2.6.021-3.562.048s-1.834.048-1.937.047c-.676-.007-3.464-.055-3.592-.061-.086,0-.347-.022-.58-.039a1.807,1.807,0,0,0-.689.081c-.2.086-.288.019-.366-.291-.1-.394-.1-.4-.239-.054-.145.37-.734.446-.884.115a.841.841,0,0,0-.424-.3c-.288-.105-.343-.069-.346.23,0,.373-.307.482-.444.159a.2.2,0,0,0-.288-.073c-.294.165-2.087.207-1.895.044.235-.2.046-.509-.248-.407-.2.069-.223.14-.113.333s.034.247-.468.255c-1.087.019-1.179.039-1.293.292-.129.283-.51.406-.507.163a.179.179,0,0,1,.2-.156.116.116,0,0,0,.119-.173c-.134-.315-.581-.2-.653.163-.057.289-.174.348-.672.339-.331-.006-.637-.091-.678-.189s.167-.172.557-.165c.349.006.633-.069.634-.168s-.329-.168-.853-.148c-.779.029-.85.063-.807.385.047.352.047.352-.1,0-.082-.195-.163-.381-.181-.413s-.146.024-.285.125c-.188.137-.27.127-.323-.036s-.086-.174-.146,0c-.041.121-.119.18-.173.132a36.732,36.732,0,0,0-5.519-.117c-.275.07-.486.044-.533-.066s-.238-.09-.546.086c-.48.275-1.9.3-2.026.03a.313.313,0,0,0-.314-.1,8.989,8.989,0,0,0-1.669.314c-.025.034-.239-.1-.475-.288-.277-.226-.5-.3-.62-.205a1.216,1.216,0,0,1-.761.012,3.889,3.889,0,0,0-1.084-.077c-.282.031-.722.065-.976.075s-.435.084-.4.164-.033.092-.149.027c-.133-.075-.275,0-.383.2-.126.236-.172.254-.17.069,0-.16-.136-.263-.372-.279-.206-.014-.376.062-.378.168s-.052.083-.112-.052c-.106-.244-1.137-.365-2.32-.273-.275.021-.6.034-.719.029s-.4-.013-.625-.017l-2.585-.052a9.6,9.6,0,0,0-2.25.095c-.1.19-1.026.135-1.257-.075a5.788,5.788,0,0,0-2.691-.128c-.04.089-.262.158-.493.153-.847-.016-1.094.385-.416.674l.4.173-.563.028c-.309.015-.689.044-.844.063-.2.026-.281-.057-.278-.291,0-.18.059-.326.128-.325s.124.081.123.178a.184.184,0,0,0,.186.179c.219,0,.252-.272.054-.45a1.632,1.632,0,0,0-.569-.213c-.36-.075-.444-.029-.5.276-.073.37-.294.511-.291.186,0-.218-.336-.241-.4-.027-.024.088-.315.091-.667.006-.72-.172-.81-.134-.732.309.046.263-.07.376-.611.6a6.3,6.3,0,0,1-1.575.338c-.834.061-.906.039-.9-.273,0-.187-.053-.341-.122-.342s-.126.151-.128.338c0,.5-.964.662-1.514.263-.49-.356-.53-.359-.444-.033.111.423-.076.435-.846.053a6.579,6.579,0,0,0-1.777-.486,2.717,2.717,0,0,1-1.112-.275c-.078-.183-.552.136-.554.374,0,.093.111.172.248.174a.23.23,0,0,1,.248.2c0,.128-.18.149-.532.063a8,8,0,0,0-1.092-.169,1.017,1.017,0,0,1-.656-.218c-.058-.109-.182-.036-.322.192-.193.313-.26.334-.444.14-.15-.159-.53-.212-1.24-.173-2.274.125-2.937.152-3.758.152-.748,0-.839.035-.706.267.182.317.014.319-1.25.016Z" fill="#db1162"/>
  </g>
</svg>
